<?xml version="1.0" encoding="UTF-8" standalone="no"?>
<svg
   xmlns:dc="http://purl.org/dc/elements/1.1/"
   xmlns:cc="http://creativecommons.org/ns#"
   xmlns:rdf="http://www.w3.org/1999/02/22-rdf-syntax-ns#"
   xmlns:svg="http://www.w3.org/2000/svg"
   xmlns="http://www.w3.org/2000/svg"
   xmlns:sodipodi="http://sodipodi.sourceforge.net/DTD/sodipodi-0.dtd"
   xmlns:inkscape="http://www.inkscape.org/namespaces/inkscape"
   viewBox="0 0 263.797 193.73593"
   height="193.73593"
   width="263.797"
   xml:space="preserve"
   id="svg2"
   version="1.1"
   inkscape:version="0.48.5 r10040"
   sodipodi:docname="pressureloss_detail.svg"><sodipodi:namedview
     pagecolor="#ffffff"
     bordercolor="#666666"
     borderopacity="1"
     objecttolerance="10"
     gridtolerance="10"
     guidetolerance="10"
     inkscape:pageopacity="0"
     inkscape:pageshadow="2"
     inkscape:window-width="640"
     inkscape:window-height="480"
     id="namedview111"
     showgrid="false"
     units="mm"
     fit-margin-top="1"
     fit-margin-right="1"
     fit-margin-bottom="1"
     fit-margin-left="1"
     inkscape:zoom="1.195946"
     inkscape:cx="127.90037"
     inkscape:cy="100.76883"
     inkscape:window-x="0"
     inkscape:window-y="0"
     inkscape:window-maximized="0"
     inkscape:current-layer="svg2" /><metadata
     id="metadata8"><rdf:RDF><cc:Work
         rdf:about=""><dc:format>image/svg+xml</dc:format><dc:type
           rdf:resource="http://purl.org/dc/dcmitype/StillImage" /></cc:Work></rdf:RDF></metadata><defs
     id="defs6" /><g
     transform="matrix(1.3333333,0,0,-1.3333333,-11.432959,191.63375)"
     id="g10"><g
       transform="scale(0.1,0.1)"
       id="g12"><path
         id="path14"
         style="fill:none;stroke:#000000;stroke-width:1.25;stroke-linecap:round;stroke-linejoin:round;stroke-miterlimit:10;stroke-opacity:1;stroke-dasharray:5, 10;stroke-dashoffset:0"
         d="M 427,224 H 1992"
         inkscape:connector-curvature="0" /><path
         id="path16"
         style="fill:none;stroke:#000000;stroke-width:5;stroke-linecap:round;stroke-linejoin:round;stroke-miterlimit:10;stroke-opacity:1;stroke-dasharray:none"
         d="m 427,224 h 31.5 m 1533.5,0 h -31.5"
         inkscape:connector-curvature="0" /><g
         transform="scale(10,10)"
         id="g18"><text
           id="text22"
           style="font-size:7px;font-variant:normal;font-weight:normal;writing-mode:lr-tb;fill:#000000;fill-opacity:1;fill-rule:nonzero;stroke:none;font-family:Helvetica;-inkscape-font-specification:Helvetica"
           transform="matrix(1,0,0,-1,34.6085,20.0648)"><tspan
             id="tspan20"
             y="0"
             x="0">0</tspan></text>
</g><path
         id="path24"
         style="fill:none;stroke:#000000;stroke-width:1.25;stroke-linecap:round;stroke-linejoin:round;stroke-miterlimit:10;stroke-opacity:1;stroke-dasharray:5, 10;stroke-dashoffset:0"
         d="M 427,399.5 H 1992"
         inkscape:connector-curvature="0" /><path
         id="path26"
         style="fill:none;stroke:#000000;stroke-width:5;stroke-linecap:round;stroke-linejoin:round;stroke-miterlimit:10;stroke-opacity:1;stroke-dasharray:none"
         d="m 427,399.5 h 31.5 m 1533.5,0 h -31.5"
         inkscape:connector-curvature="0" /><g
         transform="scale(10,10)"
         id="g28"><text
           id="text32"
           style="font-size:7px;font-variant:normal;font-weight:normal;writing-mode:lr-tb;fill:#000000;fill-opacity:1;fill-rule:nonzero;stroke:none;font-family:Helvetica;-inkscape-font-specification:Helvetica"
           transform="matrix(1,0,0,-1,28.771,37.6148)"><tspan
             id="tspan30"
             y="0"
             x="0 3.892 5.8379998">0.5</tspan></text>
</g><path
         id="path34"
         style="fill:none;stroke:#000000;stroke-width:1.25;stroke-linecap:round;stroke-linejoin:round;stroke-miterlimit:10;stroke-opacity:1;stroke-dasharray:5, 10;stroke-dashoffset:0"
         d="M 427,575.5 H 1992"
         inkscape:connector-curvature="0" /><path
         id="path36"
         style="fill:none;stroke:#000000;stroke-width:5;stroke-linecap:round;stroke-linejoin:round;stroke-miterlimit:10;stroke-opacity:1;stroke-dasharray:none"
         d="m 427,575.5 h 31.5 m 1533.5,0 h -31.5"
         inkscape:connector-curvature="0" /><g
         transform="scale(10,10)"
         id="g38"><text
           id="text42"
           style="font-size:7px;font-variant:normal;font-weight:normal;writing-mode:lr-tb;fill:#000000;fill-opacity:1;fill-rule:nonzero;stroke:none;font-family:Helvetica;-inkscape-font-specification:Helvetica"
           transform="matrix(1,0,0,-1,34.6085,55.2148)"><tspan
             id="tspan40"
             y="0"
             x="0">1</tspan></text>
</g><path
         id="path44"
         style="fill:none;stroke:#000000;stroke-width:1.25;stroke-linecap:round;stroke-linejoin:round;stroke-miterlimit:10;stroke-opacity:1;stroke-dasharray:5, 10;stroke-dashoffset:0"
         d="M 427,751 H 1992"
         inkscape:connector-curvature="0" /><path
         id="path46"
         style="fill:none;stroke:#000000;stroke-width:5;stroke-linecap:round;stroke-linejoin:round;stroke-miterlimit:10;stroke-opacity:1;stroke-dasharray:none"
         d="m 427,751 h 31.5 m 1533.5,0 h -31.5"
         inkscape:connector-curvature="0" /><g
         transform="scale(10,10)"
         id="g48"><text
           id="text52"
           style="font-size:7px;font-variant:normal;font-weight:normal;writing-mode:lr-tb;fill:#000000;fill-opacity:1;fill-rule:nonzero;stroke:none;font-family:Helvetica;-inkscape-font-specification:Helvetica"
           transform="matrix(1,0,0,-1,28.771,72.7648)"><tspan
             id="tspan50"
             y="0"
             x="0 3.892 5.8379998">1.5</tspan></text>
</g><path
         id="path54"
         style="fill:none;stroke:#000000;stroke-width:1.25;stroke-linecap:round;stroke-linejoin:round;stroke-miterlimit:10;stroke-opacity:1;stroke-dasharray:5, 10;stroke-dashoffset:0"
         d="m 427,926.5 h 1029.5 m 493.5,0 h 42"
         inkscape:connector-curvature="0" /><path
         id="path56"
         style="fill:none;stroke:#000000;stroke-width:5;stroke-linecap:round;stroke-linejoin:round;stroke-miterlimit:10;stroke-opacity:1;stroke-dasharray:none"
         d="m 427,926.5 h 31.5 m 1533.5,0 h -31.5"
         inkscape:connector-curvature="0" /><g
         transform="scale(10,10)"
         id="g58"><text
           id="text62"
           style="font-size:7px;font-variant:normal;font-weight:normal;writing-mode:lr-tb;fill:#000000;fill-opacity:1;fill-rule:nonzero;stroke:none;font-family:Helvetica;-inkscape-font-specification:Helvetica"
           transform="matrix(1,0,0,-1,34.6085,90.3148)"><tspan
             id="tspan60"
             y="0"
             x="0">2</tspan></text>
</g><path
         id="path64"
         style="fill:none;stroke:#000000;stroke-width:1.25;stroke-linecap:round;stroke-linejoin:round;stroke-miterlimit:10;stroke-opacity:1;stroke-dasharray:5, 10;stroke-dashoffset:0"
         d="m 427,1102.5 h 1029.5 m 493.5,0 h 42"
         inkscape:connector-curvature="0" /><path
         id="path66"
         style="fill:none;stroke:#000000;stroke-width:5;stroke-linecap:round;stroke-linejoin:round;stroke-miterlimit:10;stroke-opacity:1;stroke-dasharray:none"
         d="m 427,1102.5 h 31.5 m 1533.5,0 h -31.5"
         inkscape:connector-curvature="0" /><g
         transform="scale(10,10)"
         id="g68"><text
           id="text72"
           style="font-size:7px;font-variant:normal;font-weight:normal;writing-mode:lr-tb;fill:#000000;fill-opacity:1;fill-rule:nonzero;stroke:none;font-family:Helvetica;-inkscape-font-specification:Helvetica"
           transform="matrix(1,0,0,-1,28.771,107.915)"><tspan
             id="tspan70"
             y="0"
             x="0 3.892 5.8379998">2.5</tspan></text>
</g><path
         id="path74"
         style="fill:none;stroke:#000000;stroke-width:1.25;stroke-linecap:round;stroke-linejoin:round;stroke-miterlimit:10;stroke-opacity:1;stroke-dasharray:5, 10;stroke-dashoffset:0"
         d="M 427,1278 H 1992"
         inkscape:connector-curvature="0" /><path
         id="path76"
         style="fill:none;stroke:#000000;stroke-width:5;stroke-linecap:round;stroke-linejoin:round;stroke-miterlimit:10;stroke-opacity:1;stroke-dasharray:none"
         d="m 427,1278 h 31.5 m 1533.5,0 h -31.5"
         inkscape:connector-curvature="0" /><g
         transform="scale(10,10)"
         id="g78"><text
           id="text82"
           style="font-size:7px;font-variant:normal;font-weight:normal;writing-mode:lr-tb;fill:#000000;fill-opacity:1;fill-rule:nonzero;stroke:none;font-family:Helvetica;-inkscape-font-specification:Helvetica"
           transform="matrix(1,0,0,-1,34.6085,125.465)"><tspan
             id="tspan80"
             y="0"
             x="0">3</tspan></text>
</g><path
         id="path84"
         style="fill:none;stroke:#000000;stroke-width:1.25;stroke-linecap:round;stroke-linejoin:round;stroke-miterlimit:10;stroke-opacity:1;stroke-dasharray:5, 10;stroke-dashoffset:0"
         d="M 427,224 V 1278"
         inkscape:connector-curvature="0" /><path
         id="path86"
         style="fill:none;stroke:#000000;stroke-width:5;stroke-linecap:round;stroke-linejoin:round;stroke-miterlimit:10;stroke-opacity:1;stroke-dasharray:none"
         d="m 427,224 v 31.5 m 0,1022.5 v -31.5"
         inkscape:connector-curvature="0" /><g
         transform="scale(10,10)"
         id="g88"><text
           id="text92"
           style="font-size:7px;font-variant:normal;font-weight:normal;writing-mode:lr-tb;fill:#000000;fill-opacity:1;fill-rule:nonzero;stroke:none;font-family:Helvetica;-inkscape-font-specification:Helvetica"
           transform="matrix(1,0,0,-1,41.7273,13.0648)"><tspan
             id="tspan90"
             y="0"
             x="0">0</tspan></text>
</g><path
         id="path94"
         style="fill:none;stroke:#000000;stroke-width:1.25;stroke-linecap:round;stroke-linejoin:round;stroke-miterlimit:10;stroke-opacity:1;stroke-dasharray:5, 10;stroke-dashoffset:0"
         d="M 740,224 V 1278"
         inkscape:connector-curvature="0" /><path
         id="path96"
         style="fill:none;stroke:#000000;stroke-width:5;stroke-linecap:round;stroke-linejoin:round;stroke-miterlimit:10;stroke-opacity:1;stroke-dasharray:none"
         d="m 740,224 v 31.5 m 0,1022.5 v -31.5"
         inkscape:connector-curvature="0" /><g
         transform="scale(10,10)"
         id="g98"><text
           id="text102"
           style="font-size:7px;font-variant:normal;font-weight:normal;writing-mode:lr-tb;fill:#000000;fill-opacity:1;fill-rule:nonzero;stroke:none;font-family:Helvetica;-inkscape-font-specification:Helvetica"
           transform="matrix(1,0,0,-1,73.0272,13.0648)"><tspan
             id="tspan100"
             y="0"
             x="0">5</tspan></text>
</g><path
         id="path104"
         style="fill:none;stroke:#000000;stroke-width:1.25;stroke-linecap:round;stroke-linejoin:round;stroke-miterlimit:10;stroke-opacity:1;stroke-dasharray:5, 10;stroke-dashoffset:0"
         d="M 1053,224 V 1278"
         inkscape:connector-curvature="0" /><path
         id="path106"
         style="fill:none;stroke:#000000;stroke-width:5;stroke-linecap:round;stroke-linejoin:round;stroke-miterlimit:10;stroke-opacity:1;stroke-dasharray:none"
         d="m 1053,224 v 31.5 m 0,1022.5 v -31.5"
         inkscape:connector-curvature="0" /><g
         transform="scale(10,10)"
         id="g108"><text
           id="text112"
           style="font-size:7px;font-variant:normal;font-weight:normal;writing-mode:lr-tb;fill:#000000;fill-opacity:1;fill-rule:nonzero;stroke:none;font-family:Helvetica;-inkscape-font-specification:Helvetica"
           transform="matrix(1,0,0,-1,102.382,13.0648)"><tspan
             id="tspan110"
             y="0"
             x="0 3.892">10</tspan></text>
</g><path
         id="path114"
         style="fill:none;stroke:#000000;stroke-width:1.25;stroke-linecap:round;stroke-linejoin:round;stroke-miterlimit:10;stroke-opacity:1;stroke-dasharray:5, 10;stroke-dashoffset:0"
         d="M 1366,224 V 1278"
         inkscape:connector-curvature="0" /><path
         id="path116"
         style="fill:none;stroke:#000000;stroke-width:5;stroke-linecap:round;stroke-linejoin:round;stroke-miterlimit:10;stroke-opacity:1;stroke-dasharray:none"
         d="m 1366,224 v 31.5 m 0,1022.5 v -31.5"
         inkscape:connector-curvature="0" /><g
         transform="scale(10,10)"
         id="g118"><text
           id="text122"
           style="font-size:7px;font-variant:normal;font-weight:normal;writing-mode:lr-tb;fill:#000000;fill-opacity:1;fill-rule:nonzero;stroke:none;font-family:Helvetica;-inkscape-font-specification:Helvetica"
           transform="matrix(1,0,0,-1,133.682,13.0648)"><tspan
             id="tspan120"
             y="0"
             x="0 3.892">15</tspan></text>
</g><path
         id="path124"
         style="fill:none;stroke:#000000;stroke-width:1.25;stroke-linecap:round;stroke-linejoin:round;stroke-miterlimit:10;stroke-opacity:1;stroke-dasharray:5, 10;stroke-dashoffset:0"
         d="m 1679,224 v 672.5 m 0,350 v 31.5"
         inkscape:connector-curvature="0" /><path
         id="path126"
         style="fill:none;stroke:#000000;stroke-width:5;stroke-linecap:round;stroke-linejoin:round;stroke-miterlimit:10;stroke-opacity:1;stroke-dasharray:none"
         d="m 1679,224 v 31.5 m 0,1022.5 v -31.5"
         inkscape:connector-curvature="0" /><g
         transform="scale(10,10)"
         id="g128"><text
           id="text132"
           style="font-size:7px;font-variant:normal;font-weight:normal;writing-mode:lr-tb;fill:#000000;fill-opacity:1;fill-rule:nonzero;stroke:none;font-family:Helvetica;-inkscape-font-specification:Helvetica"
           transform="matrix(1,0,0,-1,164.982,13.0648)"><tspan
             id="tspan130"
             y="0"
             x="0 3.892">20</tspan></text>
</g><path
         id="path134"
         style="fill:none;stroke:#000000;stroke-width:1.25;stroke-linecap:round;stroke-linejoin:round;stroke-miterlimit:10;stroke-opacity:1;stroke-dasharray:5, 10;stroke-dashoffset:0"
         d="M 1992,224 V 1278"
         inkscape:connector-curvature="0" /><path
         id="path136"
         style="fill:none;stroke:#000000;stroke-width:5;stroke-linecap:round;stroke-linejoin:round;stroke-miterlimit:10;stroke-opacity:1;stroke-dasharray:none"
         d="m 1992,224 v 31.5 m 0,1022.5 v -31.5"
         inkscape:connector-curvature="0" /><g
         transform="scale(10,10)"
         id="g138"><text
           id="text142"
           style="font-size:7px;font-variant:normal;font-weight:normal;writing-mode:lr-tb;fill:#000000;fill-opacity:1;fill-rule:nonzero;stroke:none;font-family:Helvetica;-inkscape-font-specification:Helvetica"
           transform="matrix(1,0,0,-1,196.282,13.0648)"><tspan
             id="tspan140"
             y="0"
             x="0 3.892">25</tspan></text>
</g><path
         id="path144"
         style="fill:none;stroke:#000000;stroke-width:5;stroke-linecap:round;stroke-linejoin:round;stroke-miterlimit:10;stroke-opacity:1;stroke-dasharray:none"
         d="M 427,1278 V 224 h 1565 v 1054 z"
         inkscape:connector-curvature="0" /><g
         transform="scale(10,10)"
         id="g146"><text
           id="text150"
           style="font-size:7px;font-variant:normal;font-weight:normal;writing-mode:lr-tb;fill:#000000;fill-opacity:1;fill-rule:nonzero;stroke:none;font-family:Helvetica;-inkscape-font-specification:Helvetica"
           transform="matrix(0,1,1,0,16.3352,62.8441)"><tspan
             id="tspan148"
             y="0"
             x="0 3.892 8.5609999 10.507 12.453 16.344999 20.237 22.568001">pV [bar]</tspan></text>
<text
           id="text158"
           style="font-size:7px;font-variant:normal;font-weight:normal;writing-mode:lr-tb;fill:#000000;fill-opacity:1;fill-rule:nonzero;stroke:none;font-family:Helvetica;-inkscape-font-specification:Helvetica"
           transform="matrix(1,0,0,-1,107.921,2.56484)"><tspan
             id="tspan152"
             y="0"
             x="0 5.4460001 7.3920002 9.3380003 10.892 12.838 18.669001 20.223 24.115">Q [l/min]</tspan><tspan
             id="tspan154"
             y="-133.39999"
             x="-18.665199 -13.6112 -11.2802 -7.3881998 -3.8882 -0.38820001 3.1118 7.0037999 9.3347998 10.8888 14.7808 18.2808 20.226801 22.1728 24.503799 29.5578 33.449799 35.395802 39.2878 40.841801 42.395802">Druckverlust (Detail)</tspan><tspan
             id="tspan156"
             y="-116.25"
             x="46.472698 50.749699 54.8377">T=0</tspan></text>
</g><path
         id="path160"
         style="fill:none;stroke:#ff0000;stroke-width:2.5;stroke-linecap:round;stroke-linejoin:round;stroke-miterlimit:10;stroke-opacity:1;stroke-dasharray:none"
         d="M 1708.5,1211.5 H 1908 M 489.5,362 l 0.5,1.5 1,1.5 0.5,1 0.5,1.5 1,1.5 0.5,1.5 0.5,1.5 1,1.5 0.5,1.5 0.5,1.5 1,1.5 0.5,1.5 0.5,1.5 1,1.5 0.5,1.5 1,2 0.5,1.5 1,1.5 0.5,1.5 1,2 0.5,1.5 1,2 0.5,1.5 1,1.5 1,2 0.5,2 1,1.5 0.5,2 1,1.5 1,2 0.5,2 1,2 1,1.5 1,2 0.5,2 1,2 1,2 1,2 1,2 0.5,2 1,2 1,2 1,2 1,2.5 1,2 1,2 1,2.5 1,2 1,2 1,2.5 1,2.5 1,2 1,2.5 1,2 1,2.5 1.5,2.5 1,2.5 1,2.5 1,2.5 1,2 1.5,2.5 1,3 1,2.5 1.5,2.5 1,2.5 1,2.5 1.5,3 1,2.5 1.5,2.5 1,3 1.5,2.5 1,3 1.5,3 1,2.5 1.5,3 1.5,3 1,3 1.5,3 1.5,3 1.5,3 1,3 1.5,3 1.5,3 1.5,3.5 1.5,3 1.5,3.5 1.5,3 1.5,3.5 1.5,3 1.5,3.5 1.5,3.5 1.5,3.5 1.5,3 1.5,3.5 1.5,3.5 1.5,4 2,3.5 1.5,3.5 1.5,3.5 2,4 1.5,3.5 1.5,4"
         inkscape:connector-curvature="0" /><path
         id="path162"
         style="fill:none;stroke:#ff0000;stroke-width:2.5;stroke-linecap:round;stroke-linejoin:round;stroke-miterlimit:10;stroke-opacity:1;stroke-dasharray:none"
         d="m 599.5,605 2,3.5 1.5,4 2,4 1.5,4 2,3.5 2,4.5 1.5,4 2,4 2,4 2,4 1.5,4.5 2,4 2,4.5 2,4 2,4.5 2,4.5 2,4.5 2,4.5 2,4.5 2.5,4.5 2,5 2,4.5 2,5 2.5,4.5 2,5 2,5 2.5,4.5 2,5 2.5,5 2.5,5.5 2,5 2.5,5 2.5,5.5 2.5,5 2,5.5 2.5,5.5 2.5,5.5 2.5,5.5 2.5,5.5 2.5,5.5 2.5,5.5 3,6 2.5,5.5 2.5,6 3,6 2.5,6 2.5,6 3,6 3,6 2.5,6.5 3,6 3,6.5 2.5,6.5 3,6 3,7 3,6.5 3,6.5 3,6.5 3,7 3.5,7 3,7 3,6.5 3.5,7.5 3,7 3.5,7 3,7.5 3.5,7 3.5,7.5 3,7.5 3.5,7.5 3.5,8 3.5,7.5 3.5,8 3.5,8 4,7.5 3.5,8 3.5,8.5 4,8 3.5,8.5 4,8 3.5,8.5 4,8.5 4,9 4,8.5 4,8.5 4,9 4,9 4,9 4.5,9.5 4,9 4,9.5 4.5,9 4.5,10 4,9.5 4.5,9.5 4.5,10 4.5,10 4.5,10 4.5,10 4.5,10 5,10.5 4.5,10.5 1.5,3"
         inkscape:connector-curvature="0" /><g
         transform="scale(10,10)"
         id="g164"><text
           id="text168"
           style="font-size:7px;font-variant:normal;font-weight:normal;writing-mode:lr-tb;fill:#000000;fill-opacity:1;fill-rule:nonzero;stroke:none;font-family:Helvetica;-inkscape-font-specification:Helvetica"
           transform="matrix(1,0,0,-1,150.502,111.815)"><tspan
             id="tspan166"
             y="0"
             x="0 4.277 8.3649998 12.257">T=25</tspan></text>
</g><path
         id="path170"
         style="fill:none;stroke:#00ff00;stroke-width:2.5;stroke-linecap:round;stroke-linejoin:round;stroke-miterlimit:10;stroke-opacity:1;stroke-dasharray:none"
         d="M 1708.5,1141.5 H 1908 M 489.5,258 l 0.5,0.5 h 1 l 0.5,0.5 0.5,0.5 h 1 l 0.5,0.5 0.5,0.5 1,0.5 h 0.5 l 0.5,0.5 1,0.5 0.5,0.5 h 0.5 l 1,0.5 0.5,0.5 1,0.5 h 0.5 l 1,0.5 0.5,0.5 1,0.5 0.5,0.5 1,0.5 h 0.5 l 1,0.5 1,0.5 0.5,0.5 1,0.5 0.5,0.5 1,0.5 1,0.5 h 0.5 l 1,0.5 1,0.5 1,0.5 0.5,0.5 1,0.5 1,0.5 1,0.5 1,0.5 0.5,0.5 1,0.5 1,0.5 1,0.5 1,0.5 1,0.5 1,0.5 1,0.5 1,1 1,0.5 1,0.5 1,0.5 1,0.5 1,0.5 1,0.5 1,0.5 1.5,1 1,0.5 1,0.5 1,0.5 1,0.5 1.5,1 1,0.5 1,0.5 1.5,0.5 1,1 1,0.5 1.5,0.5 1,1 1.5,0.5 1,0.5 1.5,1 1,0.5 1.5,0.5 1,1 1.5,0.5 1.5,1 1,0.5 1.5,1 1.5,0.5 1.5,1 1,0.5 1.5,1 1.5,0.5 1.5,1 1.5,0.5 1.5,1 1.5,0.5 1.5,1 1.5,1 1.5,0.5 1.5,1 1.5,1 1.5,0.5 1.5,1 1.5,1 1.5,1 2,0.5 1.5,1 1.5,1 2,1 1.5,1 1.5,0.5"
         inkscape:connector-curvature="0" /><path
         id="path172"
         style="fill:none;stroke:#00ff00;stroke-width:2.5;stroke-linecap:round;stroke-linejoin:round;stroke-miterlimit:10;stroke-opacity:1;stroke-dasharray:none"
         d="m 599.5,317.5 2,1 1.5,1 2,1 1.5,1 2,1 2,1 1.5,1 2,1 2,1 2,1 1.5,1 2,1 2,1 2,1 2,1.5 2,1 2,1 2,1 2,1 2.5,1.5 2,1 2,1 2,1.5 2.5,1 2,1 2,1.5 2.5,1 2,1.5 2.5,1 2.5,1.5 2,1 2.5,1.5 2.5,1 2.5,1.5 2,1 2.5,1.5 2.5,1.5 2.5,1.5 2.5,1 2.5,1.5 2.5,1.5 3,1.5 2.5,1 2.5,1.5 3,1.5 2.5,1.5 2.5,1.5 3,1.5 3,1.5 2.5,1.5 3,1.5 3,1.5 2.5,2 3,1.5 3,1.5 3,1.5 3,1.5 3,2 3,1.5 3.5,1.5 3,2 3,1.5 3.5,2 3,1.5 3.5,2 3,1.5 3.5,2 3.5,2 3,1.5 3.5,2 3.5,2 3.5,2 3.5,1.5 3.5,2 4,2 3.5,2 3.5,2 4,2 3.5,2 4,2 3.5,2.5 4,2 4,2 4,2 4,2.5 4,2 4,2 4,2.5 4.5,2 4,2.5 4,2 4.5,2.5 4.5,2.5 4,2.5 4.5,2 4.5,2.5 4.5,2.5 4.5,2.5 4.5,2.5 4.5,2.5 5,2.5 4.5,2.5 5,2.5 4.5,2.5"
         inkscape:connector-curvature="0" /><path
         id="path174"
         style="fill:none;stroke:#00ff00;stroke-width:2.5;stroke-linecap:round;stroke-linejoin:round;stroke-miterlimit:10;stroke-opacity:1;stroke-dasharray:none"
         d="m 913,487.5 5,3 5,2.5 5,2.5 5,3 5,2.5 5,3 5,3 5.5,2.5 5,3 5.5,3 5.5,3 5.5,2.5 5.5,3 5.5,3 5.5,3 5.5,3.5 6,3 5.5,3 6,3 5.5,3.5 6,3 6,3.5 6,3 6.5,3.5 6,3 6,3.5 6.5,3.5 6.5,3.5 6.5,3.5 6.5,3.5 6.5,3.5 6.5,3.5 6.5,4 7,3.5 6.5,3.5 7,4 7,3.5 7,4 7,4 7.5,3.5 7,4 7.5,4 7.5,4 7,4 7.5,4 8,4.5 7.5,4 8,4 7.5,4.5 8,4.5 8,4 8,4.5 8.5,4.5 8,4.5 8.5,4.5 8,4.5 8.5,4.5 9,4.5 8.5,5 8.5,4.5 9,5 9,5 9,4.5 9,5 9.5,5 9,5 9.5,5 9.5,5.5 9.5,5 9.5,5.5 10,5 9.5,5.5 10,5.5 10,5.5 10.5,5.5 10,5.5 10.5,5.5 10.5,5.5 10.5,6 10.5,5.5 11,6 11,6 11,6 11,6 11,6 11.5,6 11.5,6.5 11.5,6 11.5,6.5 12,6.5 12,6.5 12,6.5 12,6.5 12.5,6.5 12,7 12.5,6.5 13,7 12.5,7 13,7 13,7 13,7 13.5,7 13.5,7.5 13.5,7.5"
         inkscape:connector-curvature="0" /><path
         id="path176"
         style="fill:none;stroke:#00ff00;stroke-width:2.5;stroke-linecap:round;stroke-linejoin:round;stroke-miterlimit:10;stroke-opacity:1;stroke-dasharray:none"
         d="m 1795.5,966.5 13.5,7.5 14,7.5 14,7.5 14,7.5 14,7.5 14.5,8 14.5,8 14.5,8 15,8 15,8 15,8 15.5,8.5 15.5,8.5 7.5,4"
         inkscape:connector-curvature="0" /><g
         transform="scale(10,10)"
         id="g178"><text
           id="text182"
           style="font-size:7px;font-variant:normal;font-weight:normal;writing-mode:lr-tb;fill:#000000;fill-opacity:1;fill-rule:nonzero;stroke:none;font-family:Helvetica;-inkscape-font-specification:Helvetica"
           transform="matrix(1,0,0,-1,150.502,104.815)"><tspan
             id="tspan180"
             y="0"
             x="0 4.277 8.3649998 12.257">T=50</tspan></text>
</g><path
         id="path184"
         style="fill:none;stroke:#0000ff;stroke-width:2.5;stroke-linecap:round;stroke-linejoin:round;stroke-miterlimit:10;stroke-opacity:1;stroke-dasharray:none"
         d="M 1708.5,1071.5 H 1908 M 489.5,236.5 h 2 l 0.5,0.5 h 2 l 1,0.5 h 0.5 0.5 l 1,0.5 h 0.5 0.5 1 l 0.5,0.5 h 1 0.5 l 1,0.5 h 0.5 1 0.5 l 1,0.5 h 0.5 1 l 1,0.5 h 0.5 1 l 0.5,0.5 h 1 1 l 0.5,0.5 h 1 1 l 1,0.5 h 0.5 1 l 1,0.5 h 1 1 l 0.5,0.5 h 1 l 1,0.5 h 1 1 l 1,0.5 h 1 1 l 1,0.5 h 1 l 1,0.5 h 1 1 l 1,0.5 h 1 l 1,0.5 h 1.5 l 1,0.5 h 1 1 l 1,0.5 h 1.5 l 1,0.5 h 1 l 1.5,0.5 h 1 l 1,0.5 h 1.5 l 1,0.5 h 1.5 l 1,0.5 h 1.5 l 1,0.5 h 1.5 l 1,0.5 h 1.5 l 1.5,0.5 h 1 l 1.5,0.5 h 1.5 l 1.5,0.5 h 1 l 1.5,0.5 h 1.5 l 1.5,0.5 1.5,0.5 h 1.5 l 1.5,0.5 h 1.5 l 1.5,0.5 1.5,0.5 h 1.5 l 1.5,0.5 h 1.5 l 1.5,0.5 1.5,0.5 h 1.5 l 2,0.5 1.5,0.5 h 1.5 l 2,0.5 1.5,0.5 h 1.5"
         inkscape:connector-curvature="0" /><path
         id="path186"
         style="fill:none;stroke:#0000ff;stroke-width:2.5;stroke-linecap:round;stroke-linejoin:round;stroke-miterlimit:10;stroke-opacity:1;stroke-dasharray:none"
         d="m 599.5,258 2,0.5 1.5,0.5 h 2 l 1.5,0.5 2,0.5 h 2 l 1.5,0.5 2,0.5 2,0.5 h 2 l 1.5,0.5 2,0.5 2,0.5 h 2 l 2,0.5 2,0.5 2,0.5 2,0.5 h 2 l 2.5,0.5 2,0.5 2,0.5 2,0.5 2.5,0.5 h 2 l 2,0.5 2.5,0.5 2,0.5 2.5,0.5 2.5,0.5 2,0.5 2.5,0.5 2.5,0.5 2.5,0.5 2,0.5 2.5,0.5 2.5,0.5 2.5,0.5 2.5,0.5 2.5,0.5 2.5,0.5 3,0.5 2.5,0.5 2.5,0.5 3,0.5 2.5,0.5 2.5,0.5 3,0.5 3,0.5 2.5,0.5 3,0.5 3,0.5 2.5,1 3,0.5 3,0.5 3,0.5 3,0.5 3,0.5 3,1 3.5,0.5 3,0.5 3,0.5 3.5,1 3,0.5 3.5,0.5 3,0.5 3.5,1 3.5,0.5 3,0.5 3.5,1 3.5,0.5 3.5,1 3.5,0.5 3.5,0.5 4,1 3.5,0.5 3.5,1 4,0.5 3.5,1 4,0.5 3.5,1 4,0.5 4,1 4,0.5 4,1 4,0.5 4,1 4,1 4.5,0.5 4,1 4,1 4.5,0.5 4.5,1 4,1 4.5,0.5 4.5,1 4.5,1 4.5,1 4.5,1 4.5,0.5 5,1 4.5,1 5,1 4.5,1"
         inkscape:connector-curvature="0" /><path
         id="path188"
         style="fill:none;stroke:#0000ff;stroke-width:2.5;stroke-linecap:round;stroke-linejoin:round;stroke-miterlimit:10;stroke-opacity:1;stroke-dasharray:none"
         d="m 913,320 5,1 5,1 5,1 5,1 5,1 5,1 5,1 5.5,1 5,1 5.5,1 5.5,1 5.5,1 5.5,1 5.5,1.5 5.5,1 5.5,1 6,1 5.5,1.5 6,1 5.5,1 6,1.5 6,1 6,1 6.5,1.5 6,1 6,1.5 6.5,1 6.5,1.5 6.5,1 6.5,1.5 6.5,1 6.5,1.5 6.5,1.5 7,1 6.5,1.5 7,1.5 7,1 7,1.5 7,1.5 7.5,1.5 7,1.5 7.5,1 7.5,1.5 7,1.5 7.5,1.5 8,1.5 7.5,1.5 8,1.5 7.5,2 8,1.5 8,1.5 8,2 8.5,2 8,2 8.5,2 8,2 8.5,2.5 9,2.5 8.5,2.5 8.5,2.5 9,2.5 9,3 9,3 9,3 9.5,3 9,3.5 9.5,3.5 9.5,3.5 9.5,3.5 9.5,4 10,4 9.5,4.5 10,4.5 10,4.5 10.5,5 10,5 10.5,5.5 10.5,5.5 10.5,5.5 10.5,6 11,6.5 11,6.5 11,6.5 11,7.5 11,7 11.5,8 11.5,8 11.5,8 11.5,9 12,9 12,9.5 12,10 12,10 12.5,10.5 12,11.5 12.5,11.5 13,12 12.5,12.5 13,13 13,8 13,7.5 13.5,8 13.5,7.5 13.5,8"
         inkscape:connector-curvature="0" /><path
         id="path190"
         style="fill:none;stroke:#0000ff;stroke-width:2.5;stroke-linecap:round;stroke-linejoin:round;stroke-miterlimit:10;stroke-opacity:1;stroke-dasharray:none"
         d="m 1795.5,701.5 13.5,8 14,8.5 14,8 14,8.5 14,8.5 14.5,9 14.5,9 14.5,9 15,9.5 15,9.5 15,9.5 15.5,9.5 15.5,10 7.5,5"
         inkscape:connector-curvature="0" /><g
         transform="scale(10,10)"
         id="g192"><text
           id="text196"
           style="font-size:7px;font-variant:normal;font-weight:normal;writing-mode:lr-tb;fill:#000000;fill-opacity:1;fill-rule:nonzero;stroke:none;font-family:Helvetica;-inkscape-font-specification:Helvetica"
           transform="matrix(1,0,0,-1,150.502,97.8148)"><tspan
             id="tspan194"
             y="0"
             x="0 4.277 8.3649998 12.257">T=75</tspan></text>
</g><path
         id="path198"
         style="fill:none;stroke:#ff00ff;stroke-width:2.5;stroke-linecap:round;stroke-linejoin:round;stroke-miterlimit:10;stroke-opacity:1;stroke-dasharray:none"
         d="M 1708.5,1001.5 H 1908 M 489.5,230 h 4.5 l 1,0.5 h 4.5 l 1,0.5 h 0.5 1 0.5 1 0.5 1 l 0.5,0.5 h 1 1 0.5 1 0.5 l 1,0.5 h 1 0.5 1 1 1 0.5 l 1,0.5 h 1 1 1 0.5 1 l 1,0.5 h 1 1 1 1 l 1,0.5 h 1 1 1 1 1 l 1,0.5 h 1 1 1.5 1 l 1,0.5 h 1 1 1.5 l 1,0.5 h 1 1.5 1 1 l 1.5,0.5 h 1 1.5 1 l 1.5,0.5 h 1 1.5 1 l 1.5,0.5 h 1.5 1 1.5 1.5 l 1.5,0.5 h 1 1.5 l 1.5,0.5 h 1.5 1.5 1.5 l 1.5,0.5 h 1.5 1.5 1.5 l 1.5,0.5 h 1.5 1.5 l 1.5,0.5 h 1.5 1.5 2 l 1.5,0.5 h 1.5 2 l 1.5,0.5 h 1.5"
         inkscape:connector-curvature="0" /><path
         id="path200"
         style="fill:none;stroke:#ff00ff;stroke-width:2.5;stroke-linecap:round;stroke-linejoin:round;stroke-miterlimit:10;stroke-opacity:1;stroke-dasharray:none"
         d="m 599.5,240 h 2 l 1.5,0.5 h 3.5 l 2,0.5 h 2 1.5 l 2,0.5 h 2 2 l 1.5,0.5 h 2 2 l 2,0.5 h 2 l 2,0.5 h 2 2 l 2,0.5 h 2.5 l 2,0.5 h 2 2 l 2.5,0.5 h 2 l 2,0.5 h 2.5 2 l 2.5,0.5 h 2.5 l 2,0.5 h 2.5 l 2.5,0.5 h 2.5 2 l 2.5,0.5 h 2.5 l 2.5,0.5 h 2.5 l 2.5,0.5 h 2.5 l 3,0.5 h 2.5 l 2.5,0.5 h 3 l 2.5,0.5 h 2.5 l 3,0.5 h 3 l 2.5,0.5 h 3 l 3,0.5 h 2.5 l 3,0.5 h 3 l 3,0.5 3,0.5 h 3 l 3,0.5 h 3.5 l 3,0.5 h 3 l 3.5,0.5 3,0.5 h 3.5 l 3,0.5 h 3.5 l 3.5,0.5 3,0.5 h 3.5 l 3.5,0.5 3.5,0.5 h 3.5 l 3.5,0.5 4,0.5 h 3.5 l 3.5,0.5 4,0.5 h 3.5 l 4,0.5 3.5,0.5 4,0.5 4,0.5 4,0.5 4,0.5 4,0.5 4,0.5 4,0.5 4.5,0.5 4,1 4,0.5 4.5,0.5 4.5,1 4,0.5 4.5,1 4.5,0.5 4.5,1 4.5,1 4.5,0.5 4.5,1 5,1 4.5,1 5,1 4.5,1.5"
         inkscape:connector-curvature="0" /><path
         id="path202"
         style="fill:none;stroke:#ff00ff;stroke-width:2.5;stroke-linecap:round;stroke-linejoin:round;stroke-miterlimit:10;stroke-opacity:1;stroke-dasharray:none"
         d="m 913,277 5,1 5,1 5,1.5 5,1 5,1.5 5,1.5 5,1.5 5.5,1.5 5,1.5 5.5,2 5.5,1.5 5.5,2 5.5,2 5.5,2 5.5,2 5.5,2 6,2.5 5.5,2 6,2.5 5.5,2.5 6,3 6,2.5 6,3 6.5,2 6,1.5 6,2 6.5,1.5 6.5,2 6.5,1.5 6.5,2 6.5,1.5 6.5,2 6.5,2 7,2 6.5,2 7,2 7,2 7,2 7,2 7.5,2.5 7,2 7.5,2 7.5,2.5 7,2 7.5,2.5 8,2.5 7.5,2.5 8,2.5 7.5,2.5 8,2.5 8,2.5 8,2.5 8.5,3 8,2.5 8.5,3 8,2.5 8.5,3 9,3 8.5,3 8.5,3 9,3 9,3 9,3 9,3.5 9.5,3.5 9,3 9.5,3.5 9.5,3.5 9.5,3.5 9.5,3.5 10,3.5 9.5,4 10,3.5 10,4 10.5,4 10,4 10.5,4 10.5,4 10.5,4.5 10.5,4 11,4.5 11,4.5 11,4.5 11,4.5 11,4.5 11.5,4.5 11.5,5 11.5,5 11.5,5 12,5 12,5 12,5.5 12,5 12.5,5.5 12,5.5 12.5,5.5 13,6 12.5,5.5 13,6 13,6 13,6 13.5,6.5 13.5,6 13.5,6.5"
         inkscape:connector-curvature="0" /><path
         id="path204"
         style="fill:none;stroke:#ff00ff;stroke-width:2.5;stroke-linecap:round;stroke-linejoin:round;stroke-miterlimit:10;stroke-opacity:1;stroke-dasharray:none"
         d="m 1795.5,604.5 13.5,6.5 14,7 14,6.5 14,7 14,7 14.5,7 14.5,7.5 14.5,7.5 15,7.5 15,7.5 15,8 15.5,7.5 15.5,8 7.5,4"
         inkscape:connector-curvature="0" /><g
         transform="scale(10,10)"
         id="g206"><text
           id="text210"
           style="font-size:7px;font-variant:normal;font-weight:normal;writing-mode:lr-tb;fill:#000000;fill-opacity:1;fill-rule:nonzero;stroke:none;font-family:Helvetica;-inkscape-font-specification:Helvetica"
           transform="matrix(1,0,0,-1,146.61,90.8148)"><tspan
             id="tspan208"
             y="0"
             x="0 4.277 8.3649998 12.257 16.149">T=100</tspan></text>
</g><path
         id="path212"
         style="fill:none;stroke:#00ffff;stroke-width:2.5;stroke-linecap:round;stroke-linejoin:round;stroke-miterlimit:10;stroke-opacity:1;stroke-dasharray:none"
         d="M 1708.5,931.5 H 1908 M 489.5,227 l 0.5,0.5 h 9 l 0.5,0.5 h 1 0.5 1 0.5 1 0.5 1 0.5 1 1 0.5 1 l 0.5,0.5 h 1 1 0.5 1 1 1 0.5 1 1 1 l 1,0.5 h 0.5 1 1 1 1 1 1 1 1 l 1,0.5 h 1 1 1 1 1 1 1.5 1 l 1,0.5 h 1 1 1.5 1 1 1.5 1 l 1,0.5 h 1.5 1 1.5 1 1.5 1 1.5 l 1,0.5 h 1.5 1.5 1 1.5 1.5 1.5 l 1,0.5 h 1.5 1.5 1.5 1.5 1.5 1.5 l 1.5,0.5 h 1.5 1.5 1.5 1.5 1.5 l 1.5,0.5 h 1.5 1.5 2 1.5 1.5 l 2,0.5 h 1.5 1.5"
         inkscape:connector-curvature="0" /><path
         id="path214"
         style="fill:none;stroke:#00ffff;stroke-width:2.5;stroke-linecap:round;stroke-linejoin:round;stroke-miterlimit:10;stroke-opacity:1;stroke-dasharray:none"
         d="m 599.5,233 h 5.5 l 1.5,0.5 h 7.5 l 2,0.5 h 2 1.5 2 2 l 2,0.5 h 2 2 2 2 l 2,0.5 h 2.5 2 2 l 2,0.5 h 2.5 2 l 2,0.5 h 2.5 2 l 2.5,0.5 h 2.5 2 l 2.5,0.5 h 2.5 2.5 l 2,0.5 h 2.5 l 2.5,0.5 h 2.5 l 2.5,0.5 h 2.5 l 2.5,0.5 3,0.5 h 2.5 l 2.5,0.5 3,0.5 h 2.5 l 2.5,0.5 3,0.5 3,0.5 h 2.5 l 3,0.5 3,0.5 2.5,0.5 3,0.5 3,0.5 3,0.5 3,0.5 3,1 3,0.5 3.5,0.5 3,0.5 3,1 3.5,0.5 3,1 3.5,0.5 3,1 3.5,1 3.5,0.5 3,1 3.5,0.5 3.5,0.5 3.5,0.5 3.5,0.5 3.5,0.5 4,0.5 3.5,1 3.5,0.5 4,0.5 3.5,0.5 4,0.5 3.5,1 4,0.5 4,0.5 4,0.5 4,1 4,0.5 4,0.5 4,1 4.5,0.5 4,1 4,0.5 4.5,1 4.5,0.5 4,1 4.5,0.5 4.5,1 4.5,1 4.5,0.5 4.5,1 4.5,1 5,0.5 4.5,1 5,1 4.5,1"
         inkscape:connector-curvature="0" /><path
         id="path216"
         style="fill:none;stroke:#00ffff;stroke-width:2.5;stroke-linecap:round;stroke-linejoin:round;stroke-miterlimit:10;stroke-opacity:1;stroke-dasharray:none"
         d="m 913,279 5,1 5,1 5,0.5 5,1 5,1 5,1.5 5,1 5.5,1 5,1 5.5,1 5.5,1 5.5,1 5.5,1.5 5.5,1 5.5,1.5 5.5,1 6,1 5.5,1.5 6,1 5.5,1.5 6,1.5 6,1 6,1.5 6.5,1.5 6,1.5 6,1.5 6.5,1 6.5,1.5 6.5,1.5 6.5,2 6.5,1.5 6.5,1.5 6.5,1.5 7,1.5 6.5,2 7,1.5 7,2 7,1.5 7,2 7.5,1.5 7,2 7.5,2 7.5,2 7,2 7.5,2 8,2 7.5,2 8,2 7.5,2 8,2.5 8,2 8,2 8.5,2.5 8,2.5 8.5,2 8,2.5 8.5,2.5 9,2.5 8.5,2.5 8.5,2.5 9,3 9,2.5 9,2.5 9,3 9.5,3 9,2.5 9.5,3 9.5,3 9.5,3 9.5,3 10,3 9.5,3.5 10,3 10,3.5 10.5,3.5 10,3 10.5,3.5 10.5,3.5 10.5,3.5 10.5,4 11,3.5 11,4 11,3.5 11,4 11,4 11.5,4 11.5,4.5 11.5,4 11.5,4 12,4.5 12,4.5 12,4.5 12,4.5 12.5,5 12,4.5 12.5,5 13,4.5 12.5,5 13,5 13,5.5 13,5 13.5,5.5 13.5,5.5 13.5,5.5"
         inkscape:connector-curvature="0" /><path
         id="path218"
         style="fill:none;stroke:#00ffff;stroke-width:2.5;stroke-linecap:round;stroke-linejoin:round;stroke-miterlimit:10;stroke-opacity:1;stroke-dasharray:none"
         d="m 1795.5,548 13.5,5.5 14,6 14,5.5 14,6 14,6 14.5,6.5 14.5,6 14.5,6.5 15,6.5 15,6.5 15,7 15.5,6.5 15.5,7 7.5,3.5"
         inkscape:connector-curvature="0" /><path
         id="path220"
         style="fill:none;stroke:#000000;stroke-width:5;stroke-linecap:round;stroke-linejoin:round;stroke-miterlimit:10;stroke-opacity:1;stroke-dasharray:none"
         d="M 427,1278 V 224 h 1565 v 1054 z"
         inkscape:connector-curvature="0" /></g></g></svg>