<?xml version="1.0" encoding="UTF-8" standalone="no"?>
<svg
   xmlns:dc="http://purl.org/dc/elements/1.1/"
   xmlns:cc="http://creativecommons.org/ns#"
   xmlns:rdf="http://www.w3.org/1999/02/22-rdf-syntax-ns#"
   xmlns:svg="http://www.w3.org/2000/svg"
   xmlns="http://www.w3.org/2000/svg"
   xmlns:sodipodi="http://sodipodi.sourceforge.net/DTD/sodipodi-0.dtd"
   xmlns:inkscape="http://www.inkscape.org/namespaces/inkscape"
   viewBox="0 0 258.04367 193.79193"
   height="193.79193"
   width="258.04367"
   xml:space="preserve"
   id="svg2"
   version="1.1"
   inkscape:version="0.48.5 r10040"
   sodipodi:docname="resistance_number.svg"><sodipodi:namedview
     pagecolor="#ffffff"
     bordercolor="#666666"
     borderopacity="1"
     objecttolerance="10"
     gridtolerance="10"
     guidetolerance="10"
     inkscape:pageopacity="0"
     inkscape:pageshadow="2"
     inkscape:window-width="640"
     inkscape:window-height="480"
     id="namedview88"
     showgrid="false"
     units="mm"
     fit-margin-top="1"
     fit-margin-right="1"
     fit-margin-bottom="1"
     fit-margin-left="1"
     inkscape:zoom="1.195946"
     inkscape:cx="127.90037"
     inkscape:cy="100.82483"
     inkscape:window-x="0"
     inkscape:window-y="0"
     inkscape:window-maximized="0"
     inkscape:current-layer="svg2" /><metadata
     id="metadata8"><rdf:RDF><cc:Work
         rdf:about=""><dc:format>image/svg+xml</dc:format><dc:type
           rdf:resource="http://purl.org/dc/dcmitype/StillImage" /></cc:Work></rdf:RDF></metadata><defs
     id="defs6" /><g
     transform="matrix(1.3333333,0,0,-1.3333333,-11.432959,191.63375)"
     id="g10"><g
       transform="scale(0.1,0.1)"
       id="g12"><path
         id="path14"
         style="fill:none;stroke:#000000;stroke-width:1.25;stroke-linecap:round;stroke-linejoin:round;stroke-miterlimit:10;stroke-opacity:1;stroke-dasharray:5, 10;stroke-dashoffset:0"
         d="M 469,224 H 1992"
         inkscape:connector-curvature="0" /><path
         id="path16"
         style="fill:none;stroke:#000000;stroke-width:5;stroke-linecap:round;stroke-linejoin:round;stroke-miterlimit:10;stroke-opacity:1;stroke-dasharray:none"
         d="m 469,224 h 31.5 m 1491.5,0 h -31.5"
         inkscape:connector-curvature="0" /><g
         transform="scale(10,10)"
         id="g18"><text
           id="text22"
           style="font-size:7px;font-variant:normal;font-weight:normal;writing-mode:lr-tb;fill:#000000;fill-opacity:1;fill-rule:nonzero;stroke:none;font-family:Helvetica;-inkscape-font-specification:Helvetica"
           transform="matrix(1,0,0,-1,29.0792,20.0648)"><tspan
             id="tspan20"
             y="0"
             x="0 3.892 5.8379998 9.7299995">0.01</tspan></text>
</g><path
         id="path24"
         style="fill:none;stroke:#000000;stroke-width:5;stroke-linecap:round;stroke-linejoin:round;stroke-miterlimit:10;stroke-opacity:1;stroke-dasharray:none"
         d="m 469,541.5 h 15.5 m 1507.5,0 h -15.5 M 469,727 h 15.5 m 1507.5,0 h -15.5 M 469,858.5 h 15.5 m 1507.5,0 h -15.5 M 469,960.5 h 15.5 m 1507.5,0 h -15.5 M 469,1044 h 15.5 m 1507.5,0 h -15.5 M 469,1114.5 h 15.5 m 1507.5,0 h -15.5 M 469,1176 h 15.5 m 1507.5,0 h -15.5 M 469,1230 h 15.5 m 1507.5,0 h -15.5"
         inkscape:connector-curvature="0" /><path
         id="path26"
         style="fill:none;stroke:#000000;stroke-width:1.25;stroke-linecap:round;stroke-linejoin:round;stroke-miterlimit:10;stroke-opacity:1;stroke-dasharray:5, 10;stroke-dashoffset:0"
         d="M 469,1278 H 1992"
         inkscape:connector-curvature="0" /><path
         id="path28"
         style="fill:none;stroke:#000000;stroke-width:5;stroke-linecap:round;stroke-linejoin:round;stroke-miterlimit:10;stroke-opacity:1;stroke-dasharray:none"
         d="m 469,1278 h 31.5 m 1491.5,0 h -31.5"
         inkscape:connector-curvature="0" /><g
         transform="scale(10,10)"
         id="g30"><text
           id="text34"
           style="font-size:7px;font-variant:normal;font-weight:normal;writing-mode:lr-tb;fill:#000000;fill-opacity:1;fill-rule:nonzero;stroke:none;font-family:Helvetica;-inkscape-font-specification:Helvetica"
           transform="matrix(1,0,0,-1,32.971,125.465)"><tspan
             id="tspan32"
             y="0"
             x="0 3.892 5.8379998">0.1</tspan></text>
</g><path
         id="path36"
         style="fill:none;stroke:#000000;stroke-width:5;stroke-linecap:round;stroke-linejoin:round;stroke-miterlimit:10;stroke-opacity:1;stroke-dasharray:none"
         d="m 469,224 v 15.5 m 0,1038.5 v -15.5 M 558.5,224 v 15.5 m 0,1038.5 v -15.5 M 622,224 v 15.5 m 0,1038.5 v -15.5 M 671,224 v 15.5 m 0,1038.5 v -15.5 M 711,224 v 15.5 m 0,1038.5 v -15.5 M 745,224 v 15.5 m 0,1038.5 v -15.5 M 774.5,224 v 15.5 m 0,1038.5 v -15.5 M 800.5,224 v 15.5 m 0,1038.5 v -15.5"
         inkscape:connector-curvature="0" /><path
         id="path38"
         style="fill:none;stroke:#000000;stroke-width:1.25;stroke-linecap:round;stroke-linejoin:round;stroke-miterlimit:10;stroke-opacity:1;stroke-dasharray:5, 10;stroke-dashoffset:0"
         d="M 824,224 V 1278"
         inkscape:connector-curvature="0" /><path
         id="path40"
         style="fill:none;stroke:#000000;stroke-width:5;stroke-linecap:round;stroke-linejoin:round;stroke-miterlimit:10;stroke-opacity:1;stroke-dasharray:none"
         d="m 824,224 v 31.5 m 0,1022.5 v -31.5"
         inkscape:connector-curvature="0" /><g
         transform="scale(10,10)"
         id="g42"><text
           id="text46"
           style="font-size:7px;font-variant:normal;font-weight:normal;writing-mode:lr-tb;fill:#000000;fill-opacity:1;fill-rule:nonzero;stroke:none;font-family:Helvetica;-inkscape-font-specification:Helvetica"
           transform="matrix(1,0,0,-1,75.5897,13.0648)"><tspan
             id="tspan44"
             y="0"
             x="0 3.892 7.7839999 11.676">1000</tspan></text>
</g><path
         id="path48"
         style="fill:none;stroke:#000000;stroke-width:5;stroke-linecap:round;stroke-linejoin:round;stroke-miterlimit:10;stroke-opacity:1;stroke-dasharray:none"
         d="m 976.5,224 v 15.5 m 0,1038.5 v -15.5 M 1066,224 v 15.5 m 0,1038.5 v -15.5 M 1129.5,224 v 15.5 m 0,1038.5 v -15.5 m 49,-1038.5 v 15.5 m 0,1038.5 v -15.5 M 1219,224 v 15.5 m 0,1038.5 v -15.5 M 1253,224 v 15.5 m 0,1038.5 v -15.5 M 1282.5,224 v 15.5 m 0,1038.5 v -15.5 m 26,-1038.5 v 15.5 m 0,1038.5 v -15.5"
         inkscape:connector-curvature="0" /><path
         id="path50"
         style="fill:none;stroke:#000000;stroke-width:1.25;stroke-linecap:round;stroke-linejoin:round;stroke-miterlimit:10;stroke-opacity:1;stroke-dasharray:5, 10;stroke-dashoffset:0"
         d="m 1331.5,224 v 672.5 m 0,350 v 31.5"
         inkscape:connector-curvature="0" /><path
         id="path52"
         style="fill:none;stroke:#000000;stroke-width:5;stroke-linecap:round;stroke-linejoin:round;stroke-miterlimit:10;stroke-opacity:1;stroke-dasharray:none"
         d="m 1331.5,224 v 31.5 m 0,1022.5 v -31.5"
         inkscape:connector-curvature="0" /><g
         transform="scale(10,10)"
         id="g54"><text
           id="text58"
           style="font-size:7px;font-variant:normal;font-weight:normal;writing-mode:lr-tb;fill:#000000;fill-opacity:1;fill-rule:nonzero;stroke:none;font-family:Helvetica;-inkscape-font-specification:Helvetica"
           transform="matrix(1,0,0,-1,124.394,13.0648)"><tspan
             id="tspan56"
             y="0"
             x="0 3.892 7.7839999 11.676 15.568">10000</tspan></text>
</g><path
         id="path60"
         style="fill:none;stroke:#000000;stroke-width:5;stroke-linecap:round;stroke-linejoin:round;stroke-miterlimit:10;stroke-opacity:1;stroke-dasharray:none"
         d="m 1484.5,224 v 15.5 m 0,1038.5 v -15.5 m 89,-1038.5 v 15.5 m 0,1038.5 v -15.5 M 1637,224 v 15.5 m 0,1038.5 v -15.5 M 1686.5,224 v 15.5 m 0,1038.5 v -15.5 m 40,-1038.5 v 15.5 m 0,1038.5 v -15.5 m 34,-1038.5 v 15.5 m 0,1038.5 v -15.5 M 1790,224 v 15.5 m 0,1038.5 v -15.5 M 1816,224 v 15.5 m 0,1038.5 v -15.5"
         inkscape:connector-curvature="0" /><path
         id="path62"
         style="fill:none;stroke:#000000;stroke-width:1.25;stroke-linecap:round;stroke-linejoin:round;stroke-miterlimit:10;stroke-opacity:1;stroke-dasharray:5, 10;stroke-dashoffset:0"
         d="m 1839,224 v 672.5 m 0,350 v 31.5"
         inkscape:connector-curvature="0" /><path
         id="path64"
         style="fill:none;stroke:#000000;stroke-width:5;stroke-linecap:round;stroke-linejoin:round;stroke-miterlimit:10;stroke-opacity:1;stroke-dasharray:none"
         d="m 1839,224 v 31.5 m 0,1022.5 v -31.5"
         inkscape:connector-curvature="0" /><g
         transform="scale(10,10)"
         id="g66"><text
           id="text70"
           style="font-size:7px;font-variant:normal;font-weight:normal;writing-mode:lr-tb;fill:#000000;fill-opacity:1;fill-rule:nonzero;stroke:none;font-family:Helvetica;-inkscape-font-specification:Helvetica"
           transform="matrix(1,0,0,-1,173.198,13.0648)"><tspan
             id="tspan68"
             y="0"
             x="0 3.892 7.7839999 11.676 15.568 19.459999">100000</tspan></text>
</g><path
         id="path72"
         style="fill:none;stroke:#000000;stroke-width:5;stroke-linecap:round;stroke-linejoin:round;stroke-miterlimit:10;stroke-opacity:1;stroke-dasharray:none"
         d="m 1992,224 v 15.5 m 0,1038.5 v -15.5"
         inkscape:connector-curvature="0" /><path
         id="path74"
         style="fill:none;stroke:#000000;stroke-width:5;stroke-linecap:round;stroke-linejoin:round;stroke-miterlimit:10;stroke-opacity:1;stroke-dasharray:none"
         d="M 469,1278 V 224 h 1523 v 1054 z"
         inkscape:connector-curvature="0" /><g
         transform="scale(10,10)"
         id="g76"><text
           id="text80"
           style="font-size:7px;font-variant:normal;font-weight:normal;writing-mode:lr-tb;fill:#000000;fill-opacity:1;fill-rule:nonzero;stroke:none;font-family:Helvetica;-inkscape-font-specification:Helvetica"
           transform="matrix(0,1,1,0,16.3352,52.5406)"><tspan
             id="tspan78"
             y="0"
             x="0 1.554 5.4460001 9.3380003 11.669 13.223 17.115 22.945999 26.837999 30.73 34.622002 36.952999 38.898998 40.845001 43.175999">log(lambda) [-]</tspan></text>
<text
           id="text88"
           style="font-size:7px;font-variant:normal;font-weight:normal;writing-mode:lr-tb;fill:#000000;fill-opacity:1;fill-rule:nonzero;stroke:none;font-family:Helvetica;-inkscape-font-specification:Helvetica"
           transform="matrix(1,0,0,-1,107.494,2.56484)"><tspan
             id="tspan82"
             y="0"
             x="0 1.554 5.4460001 9.3380003 11.669 16.723 20.615 22.945999 24.892 26.837999 29.169001">log(Re) [-]</tspan><tspan
             id="tspan84"
             y="-133.39999"
             x="-10.3109 -3.7028999 -2.1489 1.7431 5.6350999 7.9661002 11.4661 13.4121 17.3041 21.1961 25.0881 28.5881 32.0881 35.980099 39.872101">Widerstandszahl</tspan><tspan
             id="tspan86"
             y="-116.25"
             x="41.8391 45.3391 47.285099 51.177101 55.265099">k/d=0</tspan></text>
</g><path
         id="path90"
         style="fill:none;stroke:#ff0000;stroke-width:2.5;stroke-linecap:round;stroke-linejoin:round;stroke-miterlimit:10;stroke-opacity:1;stroke-dasharray:none"
         d="M 1708.5,1211.5 H 1908 m -1182.5,66.5 1.5,-3.5 2,-4.5 2.5,-4.5 2,-4.5 2.5,-4.5 2,-4.5 2,-4.5 2.5,-4.5 2,-4.5 2.5,-5 2,-4.5 2,-4.5 2.5,-4.5 2,-4.5 2,-4.5 2.5,-4.5 2,-4.5 2.5,-4.5 2,-5 2,-4.5 2.5,-4.5 2,-4.5 2.5,-4.5 2,-4.5 2,-4.5 2.5,-4.5 2,-4.5 2.5,-4.5 2,-5 2,-4.5 2.5,-4.5 2,-4.5 2,-4.5 2.5,-4.5 2,-4.5 2.5,-4.5 2,-4.5 2,-5 2.5,-4.5 2,-4.5 2.5,-4.5 2,-4.5 2,-4.5 2.5,-4.5 2,-4.5 2,-4.5 2.5,-5 2,-4.5 2.5,-4.5 2,-4.5 2,-4.5 2.5,-4.5 2,-4.5 2.5,-4.5 2,-4.5 2,-5 2.5,-4.5 2,-4.5 2.5,-4.5 2,-4.5 2,-4.5 2.5,-4.5 2,-4.5 2,-4.5 2.5,-5 2,-4.5 2.5,-4.5 2,-4.5 2,-4.5 2.5,-4.5 2,-4.5 2.5,-4.5 2,-4.5 2,-5 2.5,-4.5 2,-4.5 2.5,-4.5 2,-4.5 2,-4.5 2.5,-4.5 2,-4 2,-4 2.5,-4 2,-3.5 2.5,-3.5 2,-3.5 2,-3 2.5,-3 2,-2.5 2.5,-3 2,-2 2,-2.5 2.5,-2 2,-2 2,-1.5 2.5,-1.5 2,-1.5 2.5,-1 2,-0.5 2,-1 2.5,-0.5 h 2"
         inkscape:connector-curvature="0" /><path
         id="path92"
         style="fill:none;stroke:#ff0000;stroke-width:2.5;stroke-linecap:round;stroke-linejoin:round;stroke-miterlimit:10;stroke-opacity:1;stroke-dasharray:none"
         d="m 948.5,865 h 4.5 l 2,0.5 2.5,0.5 2,0.5 2.5,1 2,1.5 2,1 2.5,1.5 2,2 2,2 2.5,2 2,2.5 2.5,2.5 2,2.5 2,3 2.5,3 2,3 2.5,3.5 2,3.5 2,4 2.5,4 2,4 2.5,4 2,4.5 2,4.5 2.5,4.5 2,3 2,-1.5 2.5,-1 2,-1.5 2.5,-1.5 2,-1.5 2,-1.5 2.5,-1.5 2,-1.5 2.5,-1.5 2,-1.5 2,-1 2.5,-1.5 2,-1.5 2,-1.5 2.5,-1.5 2,-1 2.5,-1.5 2,-1.5 2,-1.5 2.5,-1.5 2,-1.5 2.5,-1 2,-1.5 2,-1.5 2.5,-1.5 2,-1.5 2.5,-1 2,-1.5 2,-1.5 2.5,-1.5 2,-1.5 2,-1 2.5,-1.5 2,-1.5 2.5,-1.5 2,-1 2,-1.5 2.5,-1.5 2,-1.5 2.5,-1 2,-1.5 2,-1.5 2.5,-1 2,-1.5 2,-1.5 2.5,-1.5 2,-1.5 2.5,-1 2,-1.5 2,-1.5 2.5,-1 2,-1.5 2.5,-1.5 2,-1 2,-1.5 2.5,-1.5 2,-1.5 2.5,-1 2,-1.5 2,-1.5 2.5,-1 2,-1.5 2,-1 2.5,-1.5 2,-1.5 2.5,-1.5 2,-1 2,-1.5 2.5,-1.5 2,-1 2.5,-1.5 2,-1 2,-1.5 2.5,-1.5 2,-1 2.5,-1.5"
         inkscape:connector-curvature="0" /><path
         id="path94"
         style="fill:none;stroke:#ff0000;stroke-width:2.5;stroke-linecap:round;stroke-linejoin:round;stroke-miterlimit:10;stroke-opacity:1;stroke-dasharray:none"
         d="m 1177,829 2,-1.5 2,-1 2.5,-1.5 2,-1 2,-1.5 2.5,-1.5 2,-1 2.5,-1.5 2,-1.5 2,-1 2.5,-1.5 2,-1 2.5,-1.5 2,-1 2,-1.5 2.5,-1 2,-1.5 2,-1.5 2.5,-1 2,-1.5 2.5,-1 2,-1.5 2,-1 2.5,-1.5 2,-1 2.5,-1.5 2,-1.5 2,-1 2.5,-1.5 2,-1 2.5,-1.5 2,-1 2,-1.5 2.5,-1 2,-1.5 2,-1 2.5,-1.5 2,-1.5 2.5,-1 2,-1 2,-1.5 2.5,-1 2,-1.5 2.5,-1 2,-1.5 2,-1 2.5,-1.5 2,-1.5 2.5,-1 2,-1 2,-1.5 2.5,-1 2,-1.5 2,-1 2.5,-1.5 2,-1 2.5,-1.5 2,-1 2,-1 2.5,-1.5 2,-1 2.5,-1.5 2,-1 2,-1 2.5,-1.5 2,-1.5 2,-1 2.5,-1 2,-1.5 2.5,-1 2,-1 2,-1.5 2.5,-1 2,-1.5 2.5,-1 2,-1.5 2,-1 2.5,-1 2,-1.5 2.5,-1 2,-1 2,-1.5 2.5,-1 2,-1.5 2,-1 2.5,-1.5 2,-1 2.5,-1 2,-1 2,-1.5 2.5,-1 2,-1 2.5,-1.5 2,-1 2,-1.5 2.5,-1 2,-1 2.5,-1.5 2,-1 2,-1 2.5,-1.5 2,-1 2,-1 2.5,-1.5"
         inkscape:connector-curvature="0" /><path
         id="path96"
         style="fill:none;stroke:#ff0000;stroke-width:2.5;stroke-linecap:round;stroke-linejoin:round;stroke-miterlimit:10;stroke-opacity:1;stroke-dasharray:none"
         d="m 1405,700.5 2,-1 2.5,-1 2,-1.5 2,-1 2.5,-1 2,-1 2.5,-1.5 2,-1 2,-1 2.5,-1.5 2,-1 2,-1 2.5,-1.5 2,-1 2.5,-1 2,-1 2,-1.5 2.5,-1 2,-1 2.5,-1.5 2,-1 2,-1 2.5,-1 2,-1.5 2.5,-1 2,-1 2,-1 2.5,-1.5 2,-1 2,-1 2.5,-1.5 2,-1 2.5,-1 2,-1 2,-1 2.5,-1.5 2,-1 2.5,-1 2,-1 2,-1.5 2.5,-1 2,-1 2,-1 2.5,-1 2,-1.5 2.5,-1 2,-1 2,-1 2.5,-1.5 2,-1 2.5,-1 2,-1 2,-1 2.5,-1 2,-1.5 2.5,-1 2,-1 2,-1 2.5,-1.5 2,-1 2,-1 2.5,-1 2,-1 2.5,-1 2,-1 2,-1.5 2.5,-1 2,-1 2.5,-1 2,-1 2,-1 2.5,-1.5 2,-1 2.5,-1 2,-1 2,-1 2.5,-1 2,-1.5 2,-1 2.5,-1 2,-1 2.5,-1 2,-1 2,-1 2.5,-1 2,-1.5 2.5,-1 2,-1 2,-1 2.5,-1 2,-1 2,-1 2.5,-1 2,-1 2.5,-1 2,-1.5 2,-1 2.5,-1 2,-1 2.5,-1 2,-1 2,-1 2.5,-1 2,-1"
         inkscape:connector-curvature="0" /><path
         id="path98"
         style="fill:none;stroke:#ff0000;stroke-width:2.5;stroke-linecap:round;stroke-linejoin:round;stroke-miterlimit:10;stroke-opacity:1;stroke-dasharray:none"
         d="m 1633,586.5 2.5,-1 2,-1.5 2,-1 2.5,-1 2,-1 2,-1 2.5,-1 2,-1 2.5,-1 2,-1 2,-1 2.5,-1 2,-1 2.5,-1 2,-1 2,-1 2.5,-1 2,-1 2.5,-1 2,-1.5 2,-1 2.5,-1 2,-1 2,-1 2.5,-1 2,-1 2.5,-1 2,-1 2,-1 2.5,-1 2,-1 2.5,-1 2,-1 2,-1 2.5,-1 2,-1 2,-1 2.5,-1 2,-1 2.5,-1 2,-1 2,-1 2.5,-1 2,-1 2.5,-1 2,-1 2,-1 2.5,-1 2,-1 2.5,-1 2,-1 2,-1 2.5,-1 2,-1 2,-1 2.5,-1 2,-1 2.5,-1 2,-1 2,-1 2.5,-1 2,-1 2.5,-0.5 2,-1 2,-1 2.5,-1 2,-1 2.5,-1 2,-1 2,-1 2.5,-1 2,-1 2,-1 2.5,-1 2,-1 2.5,-1 2,-1 2,-1 2.5,-1 2,-1 2.5,-0.5 2,-1 2,-1 2.5,-1 2,-1 2,-1 2.5,-1 2,-1 2.5,-1 2,-1 2,-1 2.5,-0.5 2,-1 2.5,-1 2,-1 2,-1 2.5,-1 2,-1 2.5,-1 2,-1 2,-1 2.5,-0.5 2,-1 2,-1"
         inkscape:connector-curvature="0" /><path
         id="path100"
         style="fill:none;stroke:#ff0000;stroke-width:2.5;stroke-linecap:round;stroke-linejoin:round;stroke-miterlimit:10;stroke-opacity:1;stroke-dasharray:none"
         d="m 1861,483.5 2.5,-1 2,-1 2.5,-1 2,-1 2,-1 2.5,-1 2,-0.5 2.5,-1 2,-1 2,-1 2.5,-1 2,-1 2,-1 2.5,-1 2,-0.5 2.5,-1 2,-1 2,-1 2.5,-1 2,-0.5 2.5,-1 2,-1 2,-1 2.5,-1 2,-1 2.5,-1 2,-0.5 2,-1 2.5,-1 2,-1 2,-1 2.5,-1 2,-1 2.5,-0.5 2,-1 2,-1 2.5,-1 2,-1 2.5,-0.5 2,-1 2,-1 2.5,-1 2,-1 2.5,-1 2,-0.5 2,-1 2.5,-1 2,-1 2,-0.5 2.5,-1 2,-1 2.5,-1 2,-1 2,-1 2.5,-0.5 2,-1 2.5,-1 2,-1 2,-0.5 1.5,-1"
         inkscape:connector-curvature="0" /><g
         transform="scale(10,10)"
         id="g102"><text
           id="text106"
           style="font-size:7px;font-variant:normal;font-weight:normal;writing-mode:lr-tb;fill:#000000;fill-opacity:1;fill-rule:nonzero;stroke:none;font-family:Helvetica;-inkscape-font-specification:Helvetica"
           transform="matrix(1,0,0,-1,135.712,111.815)"><tspan
             id="tspan104"
             y="0"
             x="0 3.5 5.4460001 9.3380003 13.426 17.318001 19.264 23.156 27.048">k/d=0.005</tspan></text>
</g><path
         id="path108"
         style="fill:none;stroke:#00ff00;stroke-width:2.5;stroke-linecap:round;stroke-linejoin:round;stroke-miterlimit:10;stroke-opacity:1;stroke-dasharray:none"
         d="M 1708.5,1141.5 H 1908 M 725.5,1278 l 1.5,-3.5 2,-4.5 2.5,-4.5 2,-4.5 2.5,-4.5 2,-4.5 2,-4.5 2.5,-4.5 2,-4.5 2.5,-5 2,-4.5 2,-4.5 2.5,-4.5 2,-4.5 2,-4.5 2.5,-4.5 2,-4.5 2.5,-4.5 2,-5 2,-4.5 2.5,-4.5 2,-4.5 2.5,-4.5 2,-4.5 2,-4.5 2.5,-4.5 2,-4.5 2.5,-4.5 2,-5 2,-4.5 2.5,-4.5 2,-4.5 2,-4.5 2.5,-4.5 2,-4.5 2.5,-4.5 2,-4.5 2,-5 2.5,-4.5 2,-4.5 2.5,-4.5 2,-4.5 2,-4.5 2.5,-4.5 2,-4.5 2,-4.5 2.5,-5 2,-4.5 2.5,-4.5 2,-4.5 2,-4.5 2.5,-4.5 2,-4.5 2.5,-4.5 2,-4.5 2,-5 2.5,-4.5 2,-4.5 2.5,-4.5 2,-4.5 2,-4.5 2.5,-4.5 2,-4.5 2,-4.5 2.5,-5 2,-4.5 2.5,-4.5 2,-4.5 2,-4.5 2.5,-4.5 2,-4.5 2.5,-4.5 2,-4.5 2,-5 2.5,-4.5 2,-4.5 2.5,-4.5 2,-4.5 2,-4.5 2.5,-4 2,-3.5 2,-3 2.5,-3.5 2,-3 2.5,-2.5 2,-3 2,-2.5 2.5,-2 2,-2 2.5,-2 2,-1.5 2,-1.5 2.5,-1.5 2,-1 2,-1 2.5,-0.5 2,-0.5 h 2.5 2 2 l 2.5,0.5 2,0.5"
         inkscape:connector-curvature="0" /><path
         id="path110"
         style="fill:none;stroke:#00ff00;stroke-width:2.5;stroke-linecap:round;stroke-linejoin:round;stroke-miterlimit:10;stroke-opacity:1;stroke-dasharray:none"
         d="m 948.5,882 2.5,0.5 2,1 2,1.5 2.5,1 2,1.5 2.5,2 2,2 2,2 2.5,2.5 2,2.5 2,2.5 2.5,3 2,3 2.5,3.5 2,3.5 2,3.5 2.5,3.5 2,4 2.5,4 2,4.5 2,4 2.5,4.5 2,5 2.5,4.5 2,5 2,5 2.5,5.5 2,3 2,-1 2.5,-1 2,-1 2.5,-1.5 2,-1 2,-1.5 2.5,-1 2,-1.5 2.5,-1 2,-1 2,-1.5 2.5,-1 2,-1 2,-1 2.5,-1.5 2,-1 2.5,-1.5 2,-1 2,-1 2.5,-1 2,-1.5 2.5,-1 2,-1 2,-1 2.5,-1.5 2,-1 2.5,-1 2,-1.5 2,-1 2.5,-1 2,-1 2,-1 2.5,-1 2,-1.5 2.5,-1 2,-1 2,-1 2.5,-1.5 2,-1 2.5,-1 2,-1 2,-1 2.5,-1 2,-1 2,-1 2.5,-1 2,-1.5 2.5,-1 2,-1 2,-1 2.5,-1 2,-1 2.5,-1 2,-1 2,-1 2.5,-1 2,-1 2.5,-1 2,-1 2,-1 2.5,-1 2,-1 2,-1 2.5,-1 2,-1 2.5,-1 2,-1 2,-1 2.5,-1 2,-1 2.5,-1 2,-1 2,-1 2.5,-1 2,-0.5 2.5,-1.5"
         inkscape:connector-curvature="0" /><path
         id="path112"
         style="fill:none;stroke:#00ff00;stroke-width:2.5;stroke-linecap:round;stroke-linejoin:round;stroke-miterlimit:10;stroke-opacity:1;stroke-dasharray:none"
         d="m 1177,888 2,-0.5 2,-1 2.5,-1 2,-1 2,-1 2.5,-0.5 2,-1 2.5,-1 2,-1 2,-1 2.5,-1 2,-0.5 2.5,-1 2,-1 2,-1 2.5,-1 2,-0.5 2,-1 2.5,-1 2,-1 2.5,-1 2,-0.5 2,-1 2.5,-1 2,-0.5 2.5,-1 2,-1 2,-1 2.5,-0.5 2,-1 2.5,-1 2,-0.5 2,-1 2.5,-0.5 2,-1 2,-1 2.5,-0.5 2,-1 2.5,-1 2,-0.5 2,-1 2.5,-0.5 2,-1 2.5,-1 2,-0.5 2,-1 2.5,-0.5 2,-1 2.5,-1 2,-0.5 2,-0.5 2.5,-1 2,-0.5 2,-1 2.5,-0.5 2,-1 2.5,-1 2,-0.5 2,-1 2.5,-0.5 2,-0.5 2.5,-1 2,-0.5 2,-1 2.5,-0.5 2,-1 2,-0.5 2.5,-1 2,-0.5 2.5,-0.5 2,-1 2,-0.5 2.5,-0.5 2,-1 2.5,-0.5 2,-1 2,-0.5 2.5,-0.5 2,-1 2.5,-0.5 2,-0.5 2,-0.5 2.5,-1 2,-0.5 2,-0.5 2.5,-1 2,-0.5 2.5,-0.5 2,-0.5 2,-1 2.5,-0.5 2,-0.5 2.5,-0.5 2,-1 2,-0.5 2.5,-0.5 2,-0.5 2.5,-1 2,-0.5 2,-0.5 2.5,-0.5 2,-0.5 2,-0.5 2.5,-1"
         inkscape:connector-curvature="0" /><path
         id="path114"
         style="fill:none;stroke:#00ff00;stroke-width:2.5;stroke-linecap:round;stroke-linejoin:round;stroke-miterlimit:10;stroke-opacity:1;stroke-dasharray:none"
         d="m 1405,809 2,-0.5 2.5,-0.5 2,-0.5 2,-0.5 2.5,-0.5 2,-0.5 2.5,-1 2,-0.5 2,-0.5 2.5,-0.5 2,-0.5 2,-0.5 2.5,-0.5 2,-0.5 2.5,-0.5 2,-0.5 2,-0.5 2.5,-0.5 2,-1 2.5,-0.5 2,-0.5 2,-0.5 2.5,-0.5 2,-0.5 2.5,-0.5 2,-0.5 2,-0.5 2.5,-0.5 2,-0.5 2,-0.5 2.5,-0.5 h 2 l 2.5,-0.5 2,-0.5 2,-0.5 2.5,-0.5 2,-0.5 2.5,-0.5 2,-0.5 2,-0.5 2.5,-0.5 2,-0.5 2,-0.5 h 2.5 l 2,-0.5 2.5,-0.5 2,-0.5 2,-0.5 2.5,-0.5 2,-0.5 2.5,-0.5 h 2 l 2,-0.5 2.5,-0.5 2,-0.5 2.5,-0.5 2,-0.5 h 2 l 2.5,-0.5 2,-0.5 2,-0.5 2.5,-0.5 h 2 l 2.5,-0.5 2,-0.5 2,-0.5 h 2.5 l 2,-0.5 2.5,-0.5 2,-0.5 h 2 l 2.5,-0.5 2,-0.5 2.5,-0.5 h 2 l 2,-0.5 2.5,-0.5 h 2 l 2,-0.5 2.5,-0.5 h 2 l 2.5,-0.5 2,-0.5 h 2 l 2.5,-0.5 2,-0.5 2.5,-0.5 h 2 l 2,-0.5 h 2.5 l 2,-0.5 2,-0.5 h 2.5 l 2,-0.5 2.5,-0.5 h 2 l 2,-0.5 h 2.5 l 2,-0.5 2.5,-0.5 h 2 l 2,-0.5 h 2.5 l 2,-0.5"
         inkscape:connector-curvature="0" /><path
         id="path116"
         style="fill:none;stroke:#00ff00;stroke-width:2.5;stroke-linecap:round;stroke-linejoin:round;stroke-miterlimit:10;stroke-opacity:1;stroke-dasharray:none"
         d="m 1633,765 2.5,-0.5 h 2 l 2,-0.5 h 2.5 l 2,-0.5 h 2 l 2.5,-0.5 h 2 l 2.5,-0.5 h 2 l 2,-0.5 2.5,-0.5 h 2 l 2.5,-0.5 h 2 l 2,-0.5 h 2.5 l 2,-0.5 h 2.5 l 2,-0.5 h 2 l 2.5,-0.5 h 2 l 2,-0.5 h 2.5 2 l 2.5,-0.5 h 2 l 2,-0.5 h 2.5 l 2,-0.5 h 2.5 l 2,-0.5 h 2 l 2.5,-0.5 h 2 2 l 2.5,-0.5 h 2 l 2.5,-0.5 h 2 l 2,-0.5 h 2.5 2 l 2.5,-0.5 h 2 l 2,-0.5 h 2.5 2 l 2.5,-0.5 h 2 l 2,-0.5 h 2.5 2 l 2,-0.5 h 2.5 2 l 2.5,-0.5 h 2 2 l 2.5,-0.5 h 2 2.5 l 2,-0.5 h 2 2.5 l 2,-0.5 h 2.5 l 2,-0.5 h 2 2.5 2 l 2,-0.5 h 2.5 2 l 2.5,-0.5 h 2 2 l 2.5,-0.5 h 2 2.5 l 2,-0.5 h 2 2.5 2 l 2,-0.5 h 2.5 2 l 2.5,-0.5 h 2 2 2.5 l 2,-0.5 h 2.5 2 2 l 2.5,-0.5 h 2 2.5 2 l 2,-0.5 h 2.5 2 2"
         inkscape:connector-curvature="0" /><path
         id="path118"
         style="fill:none;stroke:#00ff00;stroke-width:2.5;stroke-linecap:round;stroke-linejoin:round;stroke-miterlimit:10;stroke-opacity:1;stroke-dasharray:none"
         d="m 1861,745 2.5,-0.5 h 6.5 l 2,-0.5 h 2.5 2 2.5 2 l 2,-0.5 h 2.5 2 2 l 2.5,-0.5 h 2 2.5 2 2 l 2.5,-0.5 h 2 2.5 2 2 l 2.5,-0.5 h 2 2.5 2 2 l 2.5,-0.5 h 2 2 2.5 2 2.5 l 2,-0.5 h 2 2.5 2 2.5 2 l 2,-0.5 h 2.5 2 2.5 2 2 l 2.5,-0.5 h 2 2 2.5 2 2.5 l 2,-0.5 h 2 2.5 2 2.5 2 2 1.5"
         inkscape:connector-curvature="0" /><g
         transform="scale(10,10)"
         id="g120"><text
           id="text124"
           style="font-size:7px;font-variant:normal;font-weight:normal;writing-mode:lr-tb;fill:#000000;fill-opacity:1;fill-rule:nonzero;stroke:none;font-family:Helvetica;-inkscape-font-specification:Helvetica"
           transform="matrix(1,0,0,-1,139.604,104.815)"><tspan
             id="tspan122"
             y="0"
             x="0 3.5 5.4460001 9.3380003 13.426 17.318001 19.264 23.156">k/d=0.01</tspan></text>
</g><path
         id="path126"
         style="fill:none;stroke:#0000ff;stroke-width:2.5;stroke-linecap:round;stroke-linejoin:round;stroke-miterlimit:10;stroke-opacity:1;stroke-dasharray:none"
         d="M 1708.5,1071.5 H 1908 M 725.5,1278 l 1.5,-3.5 2,-4.5 2.5,-4.5 2,-4.5 2.5,-4.5 2,-4.5 2,-4.5 2.5,-4.5 2,-4.5 2.5,-5 2,-4.5 2,-4.5 2.5,-4.5 2,-4.5 2,-4.5 2.5,-4.5 2,-4.5 2.5,-4.5 2,-5 2,-4.5 2.5,-4.5 2,-4.5 2.5,-4.5 2,-4.5 2,-4.5 2.5,-4.5 2,-4.5 2.5,-4.5 2,-5 2,-4.5 2.5,-4.5 2,-4.5 2,-4.5 2.5,-4.5 2,-4.5 2.5,-4.5 2,-4.5 2,-5 2.5,-4.5 2,-4.5 2.5,-4.5 2,-4.5 2,-4.5 2.5,-4.5 2,-4.5 2,-4.5 2.5,-5 2,-4.5 2.5,-4.5 2,-4.5 2,-4.5 2.5,-4.5 2,-4.5 2.5,-4.5 2,-4.5 2,-5 2.5,-4.5 2,-4.5 2.5,-4.5 2,-4.5 2,-4.5 2.5,-4.5 2,-4.5 2,-4.5 2.5,-5 2,-4.5 2.5,-4.5 2,-4.5 2,-4.5 2.5,-4.5 2,-4.5 2.5,-4.5 2,-4.5 2,-5 2.5,-4.5 2,-4.5 2.5,-4.5 2,-4.5 2,-4.5 2.5,-3.5 2,-3 2,-2.5 2.5,-2.5 2,-2.5 2.5,-2 2,-2 2,-2 2.5,-1.5 2,-1.5 2.5,-1 2,-1 2,-1 2.5,-0.5 h 2 l 2,-0.5 h 2.5 l 2,0.5 2.5,0.5 2,0.5 2,1 2.5,1 2,1.5"
         inkscape:connector-curvature="0" /><path
         id="path128"
         style="fill:none;stroke:#0000ff;stroke-width:2.5;stroke-linecap:round;stroke-linejoin:round;stroke-miterlimit:10;stroke-opacity:1;stroke-dasharray:none"
         d="m 948.5,897.5 2.5,1.5 2,1.5 2,2 2.5,2 2,2.5 2.5,2.5 2,2.5 2,3 2.5,3 2,3 2,3.5 2.5,3.5 2,3.5 2.5,4 2,4 2,4 2.5,4.5 2,4.5 2.5,4.5 2,5 2,5 2.5,5 2,5 2.5,5 2,5.5 2,5.5 2.5,5.5 2,4 2,-1 2.5,-1 2,-1 2.5,-1 2,-1 2,-1 2.5,-1 2,-1 2.5,-1 2,-1 2,-1 2.5,-1 2,-1 2,-1 2.5,-1 2,-1 2.5,-1 2,-1 2,-1 2.5,-1 2,-1 2.5,-0.5 2,-1 2,-1 2.5,-1 2,-1 2.5,-1 2,-1 2,-1 2.5,-0.5 2,-1 2,-1 2.5,-1 2,-1 2.5,-0.5 2,-1 2,-1 2.5,-1 2,-1 2.5,-0.5 2,-1 2,-1 2.5,-0.5 2,-1 2,-1 2.5,-1 2,-0.5 2.5,-1 2,-1 2,-0.5 2.5,-1 2,-1 2.5,-0.5 2,-1 2,-1 2.5,-0.5 2,-1 2.5,-1 2,-0.5 2,-1 2.5,-0.5 2,-1 2,-0.5 2.5,-1 2,-1 2.5,-0.5 2,-1 2,-0.5 2.5,-1 2,-0.5 2.5,-1 2,-0.5 2,-1 2.5,-0.5 2,-1 2.5,-0.5"
         inkscape:connector-curvature="0" /><path
         id="path130"
         style="fill:none;stroke:#0000ff;stroke-width:2.5;stroke-linecap:round;stroke-linejoin:round;stroke-miterlimit:10;stroke-opacity:1;stroke-dasharray:none"
         d="m 1177,935.5 2,-1 2,-0.5 2.5,-1 2,-0.5 2,-0.5 2.5,-1 2,-0.5 2.5,-1 2,-0.5 2,-1 2.5,-0.5 2,-0.5 2.5,-1 2,-0.5 2,-0.5 2.5,-1 2,-0.5 2,-0.5 2.5,-1 2,-0.5 2.5,-0.5 2,-1 2,-0.5 2.5,-0.5 2,-0.5 2.5,-1 2,-0.5 2,-0.5 2.5,-1 2,-0.5 2.5,-0.5 2,-0.5 2,-0.5 2.5,-1 2,-0.5 2,-0.5 2.5,-0.5 2,-1 2.5,-0.5 2,-0.5 2,-0.5 2.5,-0.5 2,-0.5 2.5,-0.5 2,-1 2,-0.5 2.5,-0.5 2,-0.5 2.5,-0.5 2,-0.5 2,-0.5 2.5,-0.5 2,-0.5 2,-0.5 2.5,-1 2,-0.5 2.5,-0.5 2,-0.5 2,-0.5 2.5,-0.5 2,-0.5 2.5,-0.5 2,-0.5 2,-0.5 2.5,-0.5 2,-0.5 2,-0.5 2.5,-0.5 2,-0.5 2.5,-0.5 2,-0.5 2,-0.5 2.5,-0.5 2,-0.5 2.5,-0.5 2,-0.5 2,-0.5 h 2.5 l 2,-0.5 2.5,-0.5 2,-0.5 2,-0.5 2.5,-0.5 2,-0.5 2,-0.5 2.5,-0.5 2,-0.5 h 2.5 l 2,-0.5 2,-0.5 2.5,-0.5 2,-0.5 h 2.5 l 2,-0.5 2,-0.5 2.5,-0.5 2,-0.5 2.5,-0.5 h 2 l 2,-0.5 2.5,-0.5 2,-0.5 h 2 l 2.5,-0.5"
         inkscape:connector-curvature="0" /><path
         id="path132"
         style="fill:none;stroke:#0000ff;stroke-width:2.5;stroke-linecap:round;stroke-linejoin:round;stroke-miterlimit:10;stroke-opacity:1;stroke-dasharray:none"
         d="m 1405,878.5 2,-0.5 2.5,-0.5 2,-0.5 h 2 l 2.5,-0.5 2,-0.5 h 2.5 l 2,-0.5 2,-0.5 2.5,-0.5 h 2 l 2,-0.5 2.5,-0.5 h 2 l 2.5,-0.5 2,-0.5 h 2 l 2.5,-0.5 2,-0.5 h 2.5 l 2,-0.5 2,-0.5 h 2.5 l 2,-0.5 2.5,-0.5 h 2 l 2,-0.5 2.5,-0.5 h 2 l 2,-0.5 h 2.5 l 2,-0.5 2.5,-0.5 h 2 l 2,-0.5 h 2.5 l 2,-0.5 h 2.5 l 2,-0.5 2,-0.5 h 2.5 l 2,-0.5 h 2 l 2.5,-0.5 h 2 l 2.5,-0.5 h 2 l 2,-0.5 2.5,-0.5 h 2 l 2.5,-0.5 h 2 l 2,-0.5 h 2.5 l 2,-0.5 h 2.5 l 2,-0.5 h 2 l 2.5,-0.5 h 2 l 2,-0.5 h 2.5 2 l 2.5,-0.5 h 2 l 2,-0.5 h 2.5 l 2,-0.5 h 2.5 l 2,-0.5 h 2 2.5 l 2,-0.5 h 2.5 l 2,-0.5 h 2 l 2.5,-0.5 h 2 2 l 2.5,-0.5 h 2 l 2.5,-0.5 h 2 2 l 2.5,-0.5 h 2 l 2.5,-0.5 h 2 2 l 2.5,-0.5 h 2 2 l 2.5,-0.5 h 2 l 2.5,-0.5 h 2 2 l 2.5,-0.5 h 2 2.5 l 2,-0.5 h 2 2.5 l 2,-0.5"
         inkscape:connector-curvature="0" /><path
         id="path134"
         style="fill:none;stroke:#0000ff;stroke-width:2.5;stroke-linecap:round;stroke-linejoin:round;stroke-miterlimit:10;stroke-opacity:1;stroke-dasharray:none"
         d="m 1633,851 h 4.5 l 2,-0.5 h 4.5 l 2,-0.5 h 2.5 2 2.5 l 2,-0.5 h 2 2.5 l 2,-0.5 h 2.5 2 l 2,-0.5 h 2.5 2 2.5 l 2,-0.5 h 2 2.5 l 2,-0.5 h 2 2.5 2 l 2.5,-0.5 h 2 2 2.5 l 2,-0.5 h 2.5 2 2 l 2.5,-0.5 h 2 2 2.5 l 2,-0.5 h 2.5 2 2 2.5 l 2,-0.5 h 2.5 2 2 l 2.5,-0.5 h 2 2.5 2 2 l 2.5,-0.5 h 2 2 2.5 2 l 2.5,-0.5 h 2 2 2.5 2 l 2.5,-0.5 h 2 2 2.5 2 2.5 l 2,-0.5 h 2 2.5 2 2 2.5 l 2,-0.5 h 2.5 2 2 2.5 2 l 2.5,-0.5 h 2 2 2.5 2 2 l 2.5,-0.5 h 2 2.5 2 2 2.5 2 l 2.5,-0.5 h 2 2 2.5 2 2.5 2 2 l 2.5,-0.5 h 2 2"
         inkscape:connector-curvature="0" /><path
         id="path136"
         style="fill:none;stroke:#0000ff;stroke-width:2.5;stroke-linecap:round;stroke-linejoin:round;stroke-miterlimit:10;stroke-opacity:1;stroke-dasharray:none"
         d="m 1861,840 h 9 l 2,-0.5 h 17.5 l 2.5,-0.5 h 2 2.5 2 2 2.5 2 2.5 2 l 2,-0.5 h 2.5 2 2.5 2 2 2.5 2 2 2.5 l 2,-0.5 h 2.5 2 2 2.5 2 2.5 2 2 2.5 2 2.5 l 2,-0.5 h 2 2.5 2 2 2.5 2 2.5 2 2 2.5 2 2.5 l 2,-0.5 h 2 1.5"
         inkscape:connector-curvature="0" /><g
         transform="scale(10,10)"
         id="g138"><text
           id="text142"
           style="font-size:7px;font-variant:normal;font-weight:normal;writing-mode:lr-tb;fill:#000000;fill-opacity:1;fill-rule:nonzero;stroke:none;font-family:Helvetica;-inkscape-font-specification:Helvetica"
           transform="matrix(1,0,0,-1,135.712,97.8148)"><tspan
             id="tspan140"
             y="0"
             x="0 3.5 5.4460001 9.3380003 13.426 17.318001 19.264 23.156 27.048">k/d=0.015</tspan></text>
</g><path
         id="path144"
         style="fill:none;stroke:#ff00ff;stroke-width:2.5;stroke-linecap:round;stroke-linejoin:round;stroke-miterlimit:10;stroke-opacity:1;stroke-dasharray:none"
         d="M 1708.5,1001.5 H 1908 M 725.5,1278 l 1.5,-3.5 2,-4.5 2.5,-4.5 2,-4.5 2.5,-4.5 2,-4.5 2,-4.5 2.5,-4.5 2,-4.5 2.5,-5 2,-4.5 2,-4.5 2.5,-4.5 2,-4.5 2,-4.5 2.5,-4.5 2,-4.5 2.5,-4.5 2,-5 2,-4.5 2.5,-4.5 2,-4.5 2.5,-4.5 2,-4.5 2,-4.5 2.5,-4.5 2,-4.5 2.5,-4.5 2,-5 2,-4.5 2.5,-4.5 2,-4.5 2,-4.5 2.5,-4.5 2,-4.5 2.5,-4.5 2,-4.5 2,-5 2.5,-4.5 2,-4.5 2.5,-4.5 2,-4.5 2,-4.5 2.5,-4.5 2,-4.5 2,-4.5 2.5,-5 2,-4.5 2.5,-4.5 2,-4.5 2,-4.5 2.5,-4.5 2,-4.5 2.5,-4.5 2,-4.5 2,-5 2.5,-4.5 2,-4.5 2.5,-4.5 2,-4.5 2,-4.5 2.5,-4.5 2,-4.5 2,-4.5 2.5,-5 2,-4.5 2.5,-4.5 2,-4.5 2,-4.5 2.5,-4.5 2,-4.5 2.5,-4.5 2,-4.5 2,-5 2.5,-4.5 2,-4.5 2.5,-4.5 2,-4.5 2,-4.5 2.5,-3 2,-2.5 2,-2 2.5,-2 2,-2 2.5,-1.5 2,-1 2,-1.5 2.5,-1 2,-0.5 2.5,-0.5 2,-0.5 h 2 2.5 l 2,0.5 2,0.5 2.5,0.5 2,1 2.5,1 2,1.5 2,1.5 2.5,2 2,2"
         inkscape:connector-curvature="0" /><path
         id="path146"
         style="fill:none;stroke:#ff00ff;stroke-width:2.5;stroke-linecap:round;stroke-linejoin:round;stroke-miterlimit:10;stroke-opacity:1;stroke-dasharray:none"
         d="m 948.5,912 2.5,2 2,2 2,3 2.5,2.5 2,3 2.5,3 2,3 2,3.5 2.5,4 2,3.5 2,4 2.5,4 2,4.5 2.5,4 2,5 2,4.5 2.5,5 2,5 2.5,5 2,5 2,5.5 2.5,5.5 2,5.5 2.5,5.5 2,6 2,6 2.5,6 2,4 2,-1 2.5,-1 2,-0.5 2.5,-1 2,-1 2,-1 2.5,-1 2,-0.5 2.5,-1 2,-1 2,-1 2.5,-0.5 2,-1 2,-0.5 2.5,-1 2,-1 2.5,-1 2,-0.5 2,-1 2.5,-1 2,-0.5 2.5,-1 2,-0.5 2,-1 2.5,-1 2,-0.5 2.5,-1 2,-1 2,-0.5 2.5,-1 2,-0.5 2,-1 2.5,-0.5 2,-1 2.5,-0.5 2,-1 2,-0.5 2.5,-1 2,-0.5 2.5,-1 2,-0.5 2,-1 2.5,-0.5 2,-0.5 2,-1 2.5,-0.5 2,-1 2.5,-0.5 2,-1 2,-0.5 2.5,-0.5 2,-1 2.5,-0.5 2,-1 2,-0.5 2.5,-0.5 2,-1 2.5,-0.5 2,-0.5 2,-1 2.5,-0.5 2,-0.5 2,-0.5 2.5,-1 2,-0.5 2.5,-0.5 2,-1 2,-0.5 2.5,-0.5 2,-0.5 2.5,-1 2,-0.5 2,-0.5 2.5,-0.5 2,-1 2.5,-0.5"
         inkscape:connector-curvature="0" /><path
         id="path148"
         style="fill:none;stroke:#ff00ff;stroke-width:2.5;stroke-linecap:round;stroke-linejoin:round;stroke-miterlimit:10;stroke-opacity:1;stroke-dasharray:none"
         d="m 1177,974.5 2,-0.5 2,-0.5 2.5,-0.5 2,-0.5 2,-0.5 2.5,-1 2,-0.5 2.5,-0.5 2,-0.5 2,-0.5 2.5,-0.5 2,-0.5 2.5,-1 2,-0.5 2,-0.5 2.5,-0.5 2,-0.5 2,-0.5 2.5,-0.5 2,-0.5 2.5,-0.5 2,-0.5 2,-0.5 2.5,-0.5 2,-0.5 2.5,-0.5 2,-0.5 2,-0.5 2.5,-0.5 2,-0.5 2.5,-0.5 2,-0.5 2,-0.5 2.5,-0.5 2,-0.5 2,-0.5 2.5,-0.5 2,-0.5 2.5,-0.5 2,-0.5 2,-0.5 2.5,-0.5 h 2 l 2.5,-0.5 2,-0.5 2,-0.5 2.5,-0.5 2,-0.5 2.5,-0.5 2,-0.5 h 2 l 2.5,-0.5 2,-0.5 2,-0.5 2.5,-0.5 2,-0.5 2.5,-0.5 h 2 l 2,-0.5 2.5,-0.5 2,-0.5 h 2.5 l 2,-0.5 2,-0.5 2.5,-0.5 2,-0.5 h 2 l 2.5,-0.5 2,-0.5 2.5,-0.5 h 2 l 2,-0.5 2.5,-0.5 h 2 l 2.5,-0.5 2,-0.5 2,-0.5 h 2.5 l 2,-0.5 2.5,-0.5 h 2 l 2,-0.5 2.5,-0.5 h 2 l 2,-0.5 2.5,-0.5 h 2 l 2.5,-0.5 2,-0.5 h 2 l 2.5,-0.5 h 2 l 2.5,-0.5 2,-0.5 h 2 l 2.5,-0.5 2,-0.5 h 2.5 l 2,-0.5 h 2 l 2.5,-0.5 h 2 l 2,-0.5 2.5,-0.5"
         inkscape:connector-curvature="0" /><path
         id="path150"
         style="fill:none;stroke:#ff00ff;stroke-width:2.5;stroke-linecap:round;stroke-linejoin:round;stroke-miterlimit:10;stroke-opacity:1;stroke-dasharray:none"
         d="m 1405,930 h 2 l 2.5,-0.5 h 2 l 2,-0.5 h 2.5 l 2,-0.5 h 2.5 l 2,-0.5 2,-0.5 h 2.5 l 2,-0.5 h 2 l 2.5,-0.5 h 2 l 2.5,-0.5 h 2 l 2,-0.5 h 2.5 l 2,-0.5 h 2.5 l 2,-0.5 h 2 l 2.5,-0.5 h 2 2.5 l 2,-0.5 h 2 l 2.5,-0.5 h 2 l 2,-0.5 h 2.5 l 2,-0.5 h 2.5 2 l 2,-0.5 h 2.5 l 2,-0.5 h 2.5 l 2,-0.5 h 2 2.5 l 2,-0.5 h 2 l 2.5,-0.5 h 2 2.5 l 2,-0.5 h 2 l 2.5,-0.5 h 2 2.5 l 2,-0.5 h 2 2.5 l 2,-0.5 h 2.5 2 l 2,-0.5 h 2.5 2 l 2,-0.5 h 2.5 2 l 2.5,-0.5 h 2 2 l 2.5,-0.5 h 2 2.5 l 2,-0.5 h 2 2.5 l 2,-0.5 h 2.5 2 l 2,-0.5 h 2.5 2 2 l 2.5,-0.5 h 2 2.5 l 2,-0.5 h 2 2.5 2 l 2.5,-0.5 h 2 2 2.5 l 2,-0.5 h 2 2.5 2 l 2.5,-0.5 h 2 2 2.5 l 2,-0.5 h 2.5 2 2 l 2.5,-0.5 h 2"
         inkscape:connector-curvature="0" /><path
         id="path152"
         style="fill:none;stroke:#ff00ff;stroke-width:2.5;stroke-linecap:round;stroke-linejoin:round;stroke-miterlimit:10;stroke-opacity:1;stroke-dasharray:none"
         d="m 1633,910.5 h 4.5 l 2,-0.5 h 9 l 2,-0.5 h 2.5 2 2 2.5 l 2,-0.5 h 2.5 2 2 2.5 l 2,-0.5 h 2.5 2 2 2.5 l 2,-0.5 h 2 2.5 2 2.5 l 2,-0.5 h 2 2.5 2 2.5 2 l 2,-0.5 h 2.5 2 2 2.5 2 l 2.5,-0.5 h 2 2 2.5 2 2.5 2 l 2,-0.5 h 2.5 2 2.5 2 2 2.5 l 2,-0.5 h 2 2.5 2 2.5 2 2 l 2.5,-0.5 h 2 2.5 2 2 2.5 2 2.5 l 2,-0.5 h 2 2.5 2 2 2.5 2 2.5 l 2,-0.5 h 2 2.5 2 2.5 2 2 2.5 2 2 l 2.5,-0.5 h 2 2.5 2 2 2.5 2 2.5 2 2 l 2.5,-0.5 h 2 2.5 2 2 2.5 2 2"
         inkscape:connector-curvature="0" /><path
         id="path154"
         style="fill:none;stroke:#ff00ff;stroke-width:2.5;stroke-linecap:round;stroke-linejoin:round;stroke-miterlimit:10;stroke-opacity:1;stroke-dasharray:none"
         d="m 1861,903 h 7 l 2,-0.5 h 26.5 l 2,-0.5 h 2 2.5 2 2.5 2 2 2.5 2 2.5 2 2 2.5 2 2 l 2.5,-0.5 h 2 2.5 2 2 2.5 2 2.5 2 2 2.5 2 2.5 2 2 2.5 2 l 2,-0.5 h 2.5 2 2.5 2 2 2.5 2 2.5 2 2 1.5"
         inkscape:connector-curvature="0" /><g
         transform="scale(10,10)"
         id="g156"><text
           id="text160"
           style="font-size:7px;font-variant:normal;font-weight:normal;writing-mode:lr-tb;fill:#000000;fill-opacity:1;fill-rule:nonzero;stroke:none;font-family:Helvetica;-inkscape-font-specification:Helvetica"
           transform="matrix(1,0,0,-1,139.604,90.8148)"><tspan
             id="tspan158"
             y="0"
             x="0 3.5 5.4460001 9.3380003 13.426 17.318001 19.264 23.156">k/d=0.02</tspan></text>
</g><path
         id="path162"
         style="fill:none;stroke:#00ffff;stroke-width:2.5;stroke-linecap:round;stroke-linejoin:round;stroke-miterlimit:10;stroke-opacity:1;stroke-dasharray:none"
         d="M 1708.5,931.5 H 1908 M 725.5,1278 l 1.5,-3.5 2,-4.5 2.5,-4.5 2,-4.5 2.5,-4.5 2,-4.5 2,-4.5 2.5,-4.5 2,-4.5 2.5,-5 2,-4.5 2,-4.5 2.5,-4.5 2,-4.5 2,-4.5 2.5,-4.5 2,-4.5 2.5,-4.5 2,-5 2,-4.5 2.5,-4.5 2,-4.5 2.5,-4.5 2,-4.5 2,-4.5 2.5,-4.5 2,-4.5 2.5,-4.5 2,-5 2,-4.5 2.5,-4.5 2,-4.5 2,-4.5 2.5,-4.5 2,-4.5 2.5,-4.5 2,-4.5 2,-5 2.5,-4.5 2,-4.5 2.5,-4.5 2,-4.5 2,-4.5 2.5,-4.5 2,-4.5 2,-4.5 2.5,-5 2,-4.5 2.5,-4.5 2,-4.5 2,-4.5 2.5,-4.5 2,-4.5 2.5,-4.5 2,-4.5 2,-5 2.5,-4.5 2,-4.5 2.5,-4.5 2,-4.5 2,-4.5 2.5,-4.5 2,-4.5 2,-4.5 2.5,-5 2,-4.5 2.5,-4.5 2,-4.5 2,-4.5 2.5,-4.5 2,-4.5 2.5,-4.5 2,-4.5 2,-5 2.5,-4.5 2,-4.5 2.5,-4.5 2,-4.5 2,-4.5 2.5,-2.5 2,-2 2,-1.5 2.5,-1.5 2,-1 2.5,-1 2,-1 2,-0.5 2.5,-0.5 h 2 2.5 l 2,0.5 2,0.5 2.5,0.5 2,1 2,1 2.5,1.5 2,1.5 2.5,1.5 2,2 2,2.5 2.5,2 2,2.5"
         inkscape:connector-curvature="0" /><path
         id="path164"
         style="fill:none;stroke:#00ffff;stroke-width:2.5;stroke-linecap:round;stroke-linejoin:round;stroke-miterlimit:10;stroke-opacity:1;stroke-dasharray:none"
         d="m 948.5,925 2.5,3 2,3 2,3 2.5,3 2,3.5 2.5,4 2,3.5 2,4 2.5,4 2,4.5 2,4.5 2.5,4.5 2,4.5 2.5,5 2,5 2,5.5 2.5,5 2,5.5 2.5,5.5 2,5.5 2,6 2.5,5.5 2,6 2.5,6 2,6 2,6.5 2.5,6 2,4.5 2,-1 2.5,-0.5 2,-1 2.5,-0.5 2,-1 2,-0.5 2.5,-1 2,-0.5 2.5,-1 2,-1 2,-0.5 2.5,-0.5 2,-1 2,-0.5 2.5,-1 2,-0.5 2.5,-1 2,-0.5 2,-1 2.5,-0.5 2,-1 2.5,-0.5 2,-0.5 2,-1 2.5,-0.5 2,-1 2.5,-0.5 2,-1 2,-0.5 2.5,-0.5 2,-0.5 2,-1 2.5,-0.5 2,-0.5 2.5,-1 2,-0.5 2,-0.5 2.5,-1 2,-0.5 2.5,-0.5 2,-0.5 2,-1 2.5,-0.5 2,-0.5 2,-0.5 2.5,-1 2,-0.5 2.5,-0.5 2,-0.5 2,-1 2.5,-0.5 2,-0.5 2.5,-0.5 2,-0.5 2,-0.5 2.5,-1 2,-0.5 2.5,-0.5 2,-0.5 2,-0.5 2.5,-0.5 2,-0.5 2,-0.5 2.5,-0.5 2,-1 2.5,-0.5 2,-0.5 2,-0.5 2.5,-0.5 2,-0.5 2.5,-0.5 2,-0.5 2,-0.5 2.5,-0.5 2,-0.5 2.5,-0.5"
         inkscape:connector-curvature="0" /><path
         id="path166"
         style="fill:none;stroke:#00ffff;stroke-width:2.5;stroke-linecap:round;stroke-linejoin:round;stroke-miterlimit:10;stroke-opacity:1;stroke-dasharray:none"
         d="m 1177,1008.5 2,-0.5 2,-0.5 2.5,-0.5 2,-0.5 2,-0.5 2.5,-0.5 2,-0.5 2.5,-0.5 2,-0.5 2,-0.5 2.5,-0.5 2,-0.5 2.5,-0.5 h 2 l 2,-0.5 2.5,-0.5 2,-0.5 2,-0.5 2.5,-0.5 2,-0.5 2.5,-0.5 2,-0.5 h 2 l 2.5,-0.5 2,-0.5 2.5,-0.5 2,-0.5 2,-0.5 2.5,-0.5 h 2 l 2.5,-0.5 2,-0.5 2,-0.5 h 2.5 l 2,-0.5 2,-0.5 2.5,-0.5 2,-0.5 h 2.5 l 2,-0.5 2,-0.5 2.5,-0.5 h 2 l 2.5,-0.5 2,-0.5 h 2 l 2.5,-0.5 2,-0.5 2.5,-0.5 h 2 l 2,-0.5 2.5,-0.5 h 2 l 2,-0.5 2.5,-0.5 h 2 l 2.5,-0.5 2,-0.5 h 2 l 2.5,-0.5 2,-0.5 h 2.5 l 2,-0.5 2,-0.5 h 2.5 l 2,-0.5 h 2 l 2.5,-0.5 2,-0.5 h 2.5 l 2,-0.5 h 2 l 2.5,-0.5 2,-0.5 h 2.5 l 2,-0.5 h 2 l 2.5,-0.5 h 2 l 2.5,-0.5 h 2 l 2,-0.5 2.5,-0.5 h 2 l 2,-0.5 h 2.5 l 2,-0.5 h 2.5 l 2,-0.5 h 2 l 2.5,-0.5 h 2 l 2.5,-0.5 h 2 l 2,-0.5 h 2.5 l 2,-0.5 h 2.5 l 2,-0.5 h 2 2.5 l 2,-0.5 h 2 l 2.5,-0.5"
         inkscape:connector-curvature="0" /><path
         id="path168"
         style="fill:none;stroke:#00ffff;stroke-width:2.5;stroke-linecap:round;stroke-linejoin:round;stroke-miterlimit:10;stroke-opacity:1;stroke-dasharray:none"
         d="m 1405,972 h 2 l 2.5,-0.5 h 2 l 2,-0.5 h 2.5 2 l 2.5,-0.5 h 2 l 2,-0.5 h 2.5 l 2,-0.5 h 2 2.5 l 2,-0.5 h 2.5 l 2,-0.5 h 2 2.5 l 2,-0.5 h 2.5 l 2,-0.5 h 2 2.5 l 2,-0.5 h 2.5 2 l 2,-0.5 h 2.5 2 l 2,-0.5 h 2.5 2 l 2.5,-0.5 h 2 2 l 2.5,-0.5 h 2 2.5 l 2,-0.5 h 2 2.5 l 2,-0.5 h 2 2.5 l 2,-0.5 h 2.5 2 l 2,-0.5 h 2.5 2 2.5 l 2,-0.5 h 2 2.5 l 2,-0.5 h 2.5 2 2 l 2.5,-0.5 h 2 2 2.5 l 2,-0.5 h 2.5 2 2 l 2.5,-0.5 h 2 2.5 2 l 2,-0.5 h 2.5 2 2.5 l 2,-0.5 h 2 2.5 2 l 2,-0.5 h 2.5 2 2.5 2 l 2,-0.5 h 2.5 2 2.5 2 l 2,-0.5 h 2.5 2 2 2.5 l 2,-0.5 h 2.5 2 2 2.5 l 2,-0.5 h 2.5 2 2 2.5 2"
         inkscape:connector-curvature="0" /><path
         id="path170"
         style="fill:none;stroke:#00ffff;stroke-width:2.5;stroke-linecap:round;stroke-linejoin:round;stroke-miterlimit:10;stroke-opacity:1;stroke-dasharray:none"
         d="m 1633,957 2.5,-0.5 h 8.5 l 2,-0.5 h 2.5 2 2.5 2 2 l 2.5,-0.5 h 2 2.5 2 2 2.5 2 l 2.5,-0.5 h 2 2 2.5 2 2 2.5 l 2,-0.5 h 2.5 2 2 2.5 2 2.5 l 2,-0.5 h 2 2.5 2 2 2.5 2 2.5 l 2,-0.5 h 2 2.5 2 2.5 2 2 2.5 2 l 2.5,-0.5 h 2 2 2.5 2 2 2.5 2 2.5 2 l 2,-0.5 h 2.5 2 2.5 2 2 2.5 2 2.5 2 l 2,-0.5 h 2.5 2 2 2.5 2 2.5 2 2 2.5 2 l 2.5,-0.5 h 2 2 2.5 2 2 2.5 2 2.5 2 2 2.5 2 2.5 l 2,-0.5 h 2 2.5 2 2.5 2 2 2.5 2 2"
         inkscape:connector-curvature="0" /><path
         id="path172"
         style="fill:none;stroke:#00ffff;stroke-width:2.5;stroke-linecap:round;stroke-linejoin:round;stroke-miterlimit:10;stroke-opacity:1;stroke-dasharray:none"
         d="m 1861,951 h 9 l 2,-0.5 h 37.5 l 2,-0.5 h 2.5 2 2.5 2 2 2.5 2 2 2.5 2 2.5 2 2 2.5 2 2.5 2 2 2.5 2 l 2.5,-0.5 h 2 2 2.5 2 2 2.5 2 2.5 2 2 2.5 2 2.5 2 2 1.5"
         inkscape:connector-curvature="0" /><path
         id="path174"
         style="fill:none;stroke:#000000;stroke-width:5;stroke-linecap:round;stroke-linejoin:round;stroke-miterlimit:10;stroke-opacity:1;stroke-dasharray:none"
         d="M 469,1278 V 224 h 1523 v 1054 z"
         inkscape:connector-curvature="0" /></g></g></svg>