<?xml version="1.0" encoding="UTF-8" standalone="no"?>
<!-- Created with Inkscape (http://www.inkscape.org/) -->

<svg
   xmlns:dc="http://purl.org/dc/elements/1.1/"
   xmlns:cc="http://creativecommons.org/ns#"
   xmlns:rdf="http://www.w3.org/1999/02/22-rdf-syntax-ns#"
   xmlns:svg="http://www.w3.org/2000/svg"
   xmlns="http://www.w3.org/2000/svg"
   xmlns:sodipodi="http://sodipodi.sourceforge.net/DTD/sodipodi-0.dtd"
   xmlns:inkscape="http://www.inkscape.org/namespaces/inkscape"
   width="16px"
   height="16px"
   id="svg2447"
   sodipodi:version="0.32"
   inkscape:version="0.48.3.1 r9886"
   sodipodi:docname="exit.svg"
   inkscape:output_extension="org.inkscape.output.svg.inkscape"
   version="1.1">
  <defs
     id="defs2449">
    <inkscape:perspective
       sodipodi:type="inkscape:persp3d"
       inkscape:vp_x="0 : 8 : 1"
       inkscape:vp_y="0 : 1000 : 0"
       inkscape:vp_z="16 : 8 : 1"
       inkscape:persp3d-origin="8 : 5.3333333 : 1"
       id="perspective2455" />
    <marker
       id="marker10912-2"
       orient="auto"
       markerHeight="6.8858266"
       markerWidth="10.885827">
      <path
         style="fill:#008000;stroke:#008000;stroke-width:0.88582677;stroke-linecap:butt;stroke-linejoin:bevel;stroke-miterlimit:4;stroke-opacity:1;stroke-dasharray:none"
         d="m -10,-3 c 0,0 1.00001,1.09326 1,3 -10e-6,1.90674 -1,3 -1,3 L 0,0 -10,-3 z"
         id="path7435-8-1-9"
         sodipodi:nodetypes="czccc"
         inkscape:transform-center-x="5"
         inkscape:connector-curvature="0" />
    </marker>
  </defs>
  <sodipodi:namedview
     id="base"
     pagecolor="#ffffff"
     bordercolor="#666666"
     borderopacity="1.0"
     inkscape:pageopacity="0.0"
     inkscape:pageshadow="2"
     inkscape:zoom="9.5915493"
     inkscape:cx="10.460278"
     inkscape:cy="-7.1310324"
     inkscape:current-layer="layer1"
     showgrid="true"
     inkscape:grid-bbox="true"
     inkscape:document-units="px"
     inkscape:window-width="1920"
     inkscape:window-height="975"
     inkscape:window-x="0"
     inkscape:window-y="31"
     inkscape:snap-global="true"
     inkscape:snap-grids="true"
     inkscape:snap-page="true"
     inkscape:window-maximized="1">
    <inkscape:grid
       type="xygrid"
       id="grid2987" />
  </sodipodi:namedview>
  <metadata
     id="metadata2452">
    <rdf:RDF>
      <cc:Work
         rdf:about="">
        <dc:format>image/svg+xml</dc:format>
        <dc:type
           rdf:resource="http://purl.org/dc/dcmitype/StillImage" />
        <dc:title></dc:title>
      </cc:Work>
    </rdf:RDF>
  </metadata>
  <g
     id="layer1"
     inkscape:label="Layer 1"
     inkscape:groupmode="layer">
    <rect
       style="fill:#008000;stroke:none"
       id="rect4920-2"
       width="14"
       height="7"
       x="1"
       y="4"
       ry="0" />
    <path
       id="path4899-8"
       style="fill:#ffffff;stroke:none"
       d="m 7.125,4.65625 0,4.8125 -1.09375,-1.09375 0,0.65625 1.3125,1.3125 1.3125,-1.3125 0,-0.65625 -1.09375,1.09375 0,-4.8125 -0.4375,0"
       inkscape:connector-curvature="0"
       sodipodi:nodetypes="cccccccccc" />
    <path
       style="fill:#ffffff;stroke:none"
       d="m 9.9687504,7.71875 0,-0.4375 1.0937496,0 0,-0.875 0.875,-0.65625 1.3125,0 0.65625,1.09375 -0.378886,0.21875 -0.496114,-0.8592945 -0.875,-0.015705 1.010364,1.75 0,1.0937495 1.177136,0 0,0.4375 -1.75,0 0,-1.0937496 L 11.5,9.006477 l 0,1.337274 -0.4375,0 0,-1.7500005 1.09375,-0.6314768 -0.519484,-0.8997733 0,0.65625 -1.6680156,0"
       id="path4903-2"
       inkscape:connector-curvature="0"
       sodipodi:nodetypes="cccccccccccccccccccccccc" />
    <path
       sodipodi:type="arc"
       style="fill:#ffffff;stroke:none"
       id="path4916-2"
       sodipodi:cx="22.5"
       sodipodi:cy="33.5"
       sodipodi:rx="2.5"
       sodipodi:ry="2.5"
       d="m 25,33.5 a 2.5,2.5 0 1 1 -5,0 2.5,2.5 0 1 1 5,0 z"
       transform="matrix(0.21875,0,0,0.21875,6.25,-1.7968756)" />
    <rect
       style="fill:#ffffff;stroke:none"
       id="rect4918-0"
       width="3.0625007"
       height="5.6875"
       x="1.65625"
       y="4.65625" />
  </g>
</svg>
