# Wavefront OBJ (1.0) exported by lynx's OBJ import/export script

# Meshname:	Plane.013
# Total number of Faces:	6
# Total number of Vertices:	9

mtllib obstacle.mtl

g Plane.013

v 0.999999821186 -1.45847761631 -2.00000047684
v -1.00000023842 -1.45847761631 -2.00000023842
v 0.0 -1.45847773552 -7.49120440466e-22
v 0.0 1.45847773552 -1.44726101325e-07
v -1.00000023842 1.45847797394 -2.00000047684
v 0.999999821186 1.45847797394 -2.00000071526
v 0.999999821186 1.45847797394 -2.00000071526
v -1.00000023842 1.45847797394 -2.00000047684
v 0.0 1.45847773552 -1.44726101325e-07
vn 0.616382360458 -0.68913847208 -0.380932033062
vn -0.616382360458 -0.68913847208 -0.380932033062
vn 0.0 -0.745353579521 0.666646301746
vn 0.0 0.745353579521 0.666646301746
vn -0.616382360458 0.68913847208 -0.380932033062
vn 0.616382360458 0.68913847208 -0.380932033062
vn 0.0 1.0 0.0
vn 0.0 1.0 0.0
vn 0.0 1.0 0.0
usemtl Material.003
f 2//2 1//1 3//3 
f 3//3 1//1 6//6 4//4 
f 2//2 3//3 4//4 5//5 
f 1//1 2//2 5//5 6//6 
f 4//4 6//6 5//5 
f 9//9 7//7 8//8 
