v -0.500000 0.884887 0.884887
v 0.500000 0.884889 0.884885
v 0.500000 1.040519 0.695249
v -0.500000 1.040517 0.695251
v 0.500000 1.156162 0.478895
v -0.500000 1.156161 0.478897
v 0.500000 1.227374 0.244137
v -0.500000 1.227374 0.244140
v 0.500000 1.251419 -0.000003
v -0.500000 1.251420 0.000000
v 0.500000 1.227374 -0.244142
v -0.500000 1.227374 -0.244140
v 0.500000 1.156160 -0.478899
v -0.500000 1.156161 -0.478897
v 0.500000 1.040517 -0.695252
v -0.500000 1.040517 -0.695251
v 0.500000 0.884887 -0.884888
v -0.500000 0.884887 -0.884887
v 0.500000 0.695251 -1.040517
v -0.500000 0.695251 -1.040517
v 0.500000 0.478898 -1.156161
v -0.500000 0.478897 -1.156161
v 0.500000 0.244141 -1.227373
v -0.500000 0.244139 -1.227374
v 0.500000 0.000001 -1.251419
v -0.500000 -0.000000 -1.251419
v 0.500000 -0.244138 -1.227374
v -0.500000 -0.244140 -1.227374
v 0.500000 -0.478896 -1.156161
v -0.500000 -0.478898 -1.156161
v 0.500000 -0.695249 -1.040519
v -0.500000 -0.695252 -1.040517
v 0.500000 -0.884885 -0.884889
v -0.500000 -0.884888 -0.884887
v 0.500000 -1.040515 -0.695254
v -0.500000 -1.040518 -0.695251
v 0.500000 -1.156159 -0.478901
v -0.500000 -1.156161 -0.478897
v 0.500000 -1.227373 -0.244144
v -0.500000 -1.227374 -0.244139
v 0.500000 -1.251420 -0.000005
v -0.500000 -1.251420 0.000001
v 0.500000 -1.227375 0.244134
v -0.500000 -1.227374 0.244141
v 0.500000 -1.156163 0.478892
v -0.500000 -1.156160 0.478899
v 0.500000 -1.040521 0.695246
v -0.500000 -1.040516 0.695253
v 0.500000 -0.884892 0.884882
v -0.500000 -0.884886 0.884888
v 0.500000 -0.695258 1.040513
v -0.500000 -0.695250 1.040518
v 0.500000 -0.478905 1.156158
v -0.500000 -0.478896 1.156161
v 0.500000 -0.244148 1.227372
v -0.500000 -0.244138 1.227374
v 0.500000 -0.000009 1.251419
v -0.500000 0.000002 1.251419
v 0.500000 0.244131 1.227376
v -0.500000 0.244142 1.227373
v 0.500000 0.478888 1.156165
v -0.500000 0.478899 1.156160
v 0.500000 0.695243 1.040523
v -0.500000 0.695254 1.040516
v -0.500000 0.831612 0.555665
v -0.500000 0.707228 0.707227
v 0.500000 0.707229 0.707226
v 0.500000 0.831613 0.555664
v 0.500000 0.924038 0.382747
v -0.500000 0.924038 0.382749
v -0.500000 0.980952 0.195124
v 0.500000 0.980953 0.195122
v 0.500000 1.000171 -0.000002
v -0.500000 1.000171 0.000000
v -0.500000 0.980953 -0.195124
v 0.500000 0.980953 -0.195125
v 0.500000 0.924038 -0.382750
v -0.500000 0.924038 -0.382749
v -0.500000 0.831612 -0.555665
v 0.500000 0.831612 -0.555666
v 0.500000 0.707228 -0.707228
v -0.500000 0.707228 -0.707228
v -0.500000 0.555665 -0.831612
v 0.500000 0.555665 -0.831612
v 0.500000 0.382749 -0.924037
v -0.500000 0.382749 -0.924037
v -0.500000 0.195124 -0.980953
v 0.500000 0.195124 -0.980953
v 0.500000 0.000001 -1.000171
v -0.500000 -0.000000 -1.000171
v -0.500000 -0.195124 -0.980953
v 0.500000 -0.195122 -0.980953
v 0.500000 -0.382747 -0.924038
v -0.500000 -0.382749 -0.924037
v -0.500000 -0.555665 -0.831611
v 0.500000 -0.555663 -0.831613
v 0.500000 -0.707226 -0.707229
v -0.500000 -0.707228 -0.707228
v -0.500000 -0.831612 -0.555665
v 0.500000 -0.831610 -0.555667
v 0.500000 -0.924036 -0.382752
v -0.500000 -0.924038 -0.382748
v -0.500000 -0.980953 -0.195123
v 0.500000 -0.980952 -0.195127
v 0.500000 -1.000171 -0.000004
v -0.500000 -1.000171 -0.000001
v -0.500000 -0.980953 0.195124
v 0.500000 -0.980954 0.195119
v 0.500000 -0.924039 0.382744
v -0.500000 -0.924037 0.382750
v -0.500000 -0.831612 0.555666
v 0.500000 -0.831614 0.555661
v 0.500000 -0.707231 0.707223
v -0.500000 -0.707227 0.707229
v -0.500000 -0.555665 0.831612
v 0.500000 -0.555670 0.831608
v 0.500000 -0.382755 0.924035
v -0.500000 -0.382747 0.924038
v -0.500000 -0.195123 0.980953
v 0.500000 -0.195130 0.980951
v 0.500000 -0.000008 1.000170
v -0.500000 -0.000002 1.000171
v -0.500000 0.195124 0.980953
v 0.500000 0.195116 0.980954
v 0.500000 0.382741 0.924040
v -0.500000 0.382750 0.924037
v -0.500000 0.555666 0.831611
v 0.500000 0.555658 0.831616
vn 0.000000 0.000002 -1.000000
vn 0.000000 0.000002 -1.000000
vn 0.000000 -0.195089 -0.980786
vn 0.000000 -0.195089 -0.980786
vn 0.000001 -0.290284 -0.956940
vn 0.000001 -0.290284 -0.956940
vn 0.000001 -0.382681 -0.923880
vn 0.000001 -0.382681 -0.923880
vn 0.000001 -0.471393 -0.881923
vn 0.000001 -0.471393 -0.881923
vn 0.000001 -0.555568 -0.831471
vn 0.000001 -0.555568 -0.831471
vn 0.000000 -0.634393 -0.773011
vn 0.000000 -0.634393 -0.773011
vn 0.000001 -0.707106 -0.707108
vn 0.000001 -0.707106 -0.707108
vn 0.000001 -0.773009 -0.634395
vn 0.000001 -0.773009 -0.634395
vn 0.000001 -0.831468 -0.555572
vn 0.000001 -0.831468 -0.555572
vn 0.000001 -0.881920 -0.471400
vn 0.000001 -0.881920 -0.471400
vn 0.000001 -0.923878 -0.382687
vn 0.000001 -0.923878 -0.382687
vn 0.000001 -0.956939 -0.290289
vn 0.000001 -0.956939 -0.290289
vn 0.000001 -0.980784 -0.195095
vn 0.000001 -0.980784 -0.195095
vn 0.000000 -0.995184 -0.098023
vn 0.000000 -0.995184 -0.098023
vn 0.000001 -1.000000 -0.000004
vn 0.000001 -1.000000 -0.000004
vn 0.000001 -0.995185 0.098015
vn 0.000001 -0.995185 0.098015
vn 0.000001 -0.980786 0.195087
vn 0.000001 -0.980786 0.195087
vn 0.000001 -0.956941 0.290281
vn 0.000001 -0.956941 0.290281
vn 0.000001 -0.923881 0.382679
vn 0.000001 -0.923881 0.382679
vn 0.000001 -0.881924 0.471391
vn 0.000001 -0.881924 0.471391
vn 0.000001 -0.831472 0.555566
vn 0.000001 -0.831472 0.555566
vn 0.000001 -0.773013 0.634390
vn 0.000001 -0.773013 0.634390
vn 0.000001 -0.707111 0.707103
vn 0.000001 -0.707111 0.707103
vn 0.000001 -0.634399 0.773005
vn 0.000001 -0.634399 0.773005
vn 0.000001 -0.555576 0.831466
vn 0.000001 -0.555576 0.831466
vn 0.000001 -0.471403 0.881918
vn 0.000001 -0.471403 0.881918
vn 0.000000 -0.382689 0.923877
vn 0.000000 -0.382689 0.923877
vn 0.000000 -0.290290 0.956939
vn 0.000000 -0.290290 0.956939
vn 0.000001 -0.195095 0.980784
vn 0.000001 -0.195095 0.980784
vn 0.000001 -0.098022 0.995184
vn 0.000001 -0.098022 0.995184
vn 0.000001 -0.000008 1.000000
vn 0.000001 -0.000008 1.000000
vn -1.000000 0.000000 0.000000
vn -1.000000 0.000000 0.000000
vn -1.000000 0.000000 0.000000
vn -1.000000 0.000000 0.000000
vn 0.000000 -0.000000 1.000000
vn 0.000000 -0.000000 1.000000
vn 0.000000 0.195089 0.980786
vn 0.000000 0.195089 0.980786
vn 1.000000 0.000000 0.000000
vn 1.000000 0.000000 0.000000
vn 1.000000 0.000000 0.000000
vn 1.000000 0.000000 0.000000
vn 1.000000 0.000000 0.000000
vn 1.000000 0.000000 -0.000000
vn 1.000000 0.000000 -0.000000
vn 1.000000 0.000000 0.000000
vn 0.000000 0.382683 0.923880
vn 0.000000 0.382683 0.923880
vn 0.000000 0.290283 0.956941
vn 0.000000 0.290283 0.956941
vn -1.000000 0.000000 0.000000
vn -1.000000 0.000000 0.000000
vn -1.000000 0.000000 0.000000
vn -1.000000 0.000000 0.000000
vn -1.000000 0.000000 0.000000
vn -1.000000 0.000000 0.000000
vn -1.000000 0.000000 -0.000000
vn -1.000000 0.000000 -0.000000
vn -0.000000 0.471399 0.881920
vn -0.000000 0.471399 0.881920
vn -0.000000 0.555570 0.831470
vn -0.000000 0.555570 0.831470
vn 1.000000 0.000000 0.000000
vn 1.000000 0.000000 0.000000
vn 1.000000 0.000000 0.000000
vn 1.000000 0.000000 0.000000
vn 1.000000 0.000000 0.000000
vn 1.000000 0.000000 -0.000000
vn 1.000000 0.000000 -0.000000
vn 1.000000 0.000000 0.000000
vn -0.000001 0.707107 0.707107
vn -0.000001 0.707107 0.707107
vn -0.000001 0.634392 0.773012
vn -0.000001 0.634392 0.773012
vn -1.000000 0.000000 0.000000
vn -1.000000 0.000000 0.000000
vn -1.000000 0.000000 0.000000
vn -1.000000 0.000000 0.000000
vn -1.000000 0.000000 0.000000
vn -1.000000 0.000000 0.000000
vn -1.000000 0.000000 -0.000000
vn -1.000000 0.000000 -0.000000
vn -0.000001 0.773012 0.634392
vn -0.000001 0.773012 0.634392
vn -0.000000 0.831469 0.555571
vn -0.000000 0.831469 0.555571
vn 1.000000 0.000000 0.000000
vn 1.000000 0.000000 0.000000
vn 1.000000 0.000000 0.000000
vn 1.000000 0.000000 0.000000
vn 1.000000 0.000000 0.000000
vn 1.000000 0.000000 -0.000000
vn 1.000000 0.000000 -0.000000
vn 1.000000 0.000000 0.000000
vn -0.000000 0.923879 0.382685
vn -0.000000 0.923879 0.382685
vn 0.000000 0.881919 0.471401
vn 0.000000 0.881919 0.471401
vn -1.000000 0.000000 0.000000
vn -1.000000 0.000000 0.000000
vn -1.000000 0.000000 0.000000
vn -1.000000 0.000000 0.000000
vn -1.000000 0.000000 0.000000
vn -1.000000 0.000000 0.000000
vn -1.000000 0.000000 -0.000000
vn -1.000000 0.000000 -0.000000
vn -0.000001 0.956941 0.290283
vn -0.000001 0.956941 0.290283
vn -0.000000 0.980785 0.195092
vn -0.000000 0.980785 0.195092
vn 1.000000 0.000000 0.000000
vn 1.000000 0.000000 0.000000
vn 1.000000 0.000000 0.000000
vn 1.000000 0.000000 0.000000
vn 1.000000 0.000000 -0.000000
vn 1.000000 0.000000 -0.000000
vn 1.000000 0.000000 -0.000000
vn 1.000000 0.000000 -0.000000
vn 0.000000 1.000000 0.000003
vn 0.000000 1.000000 0.000003
vn 0.000000 0.995184 0.098022
vn 0.000000 0.995184 0.098022
vn -1.000000 0.000000 0.000000
vn -1.000000 0.000000 0.000000
vn -1.000000 0.000000 0.000000
vn -1.000000 0.000000 0.000000
vn -1.000000 0.000000 0.000000
vn -1.000000 0.000000 0.000000
vn -1.000000 -0.000000 0.000000
vn -1.000000 -0.000000 0.000000
vn -0.000000 0.995185 -0.098016
vn -0.000000 0.995185 -0.098016
vn -0.000000 0.980786 -0.195089
vn -0.000000 0.980786 -0.195089
vn 1.000000 0.000000 -0.000000
vn 1.000000 0.000000 -0.000000
vn 1.000000 0.000000 0.000000
vn 1.000000 0.000000 0.000000
vn 1.000000 0.000000 0.000000
vn 1.000000 -0.000000 0.000000
vn 1.000000 -0.000000 0.000000
vn 1.000000 0.000000 0.000000
vn -0.000000 0.923880 -0.382681
vn -0.000000 0.923880 -0.382681
vn 0.000000 0.956941 -0.290283
vn 0.000000 0.956941 -0.290283
vn -1.000000 0.000000 -0.000000
vn -1.000000 0.000000 0.000000
vn -1.000000 0.000000 0.000000
vn -1.000000 0.000000 -0.000000
vn -1.000000 0.000000 0.000000
vn -1.000000 0.000000 0.000000
vn -1.000000 -0.000000 0.000000
vn -1.000000 -0.000000 0.000000
vn -0.000001 0.881922 -0.471395
vn -0.000001 0.881922 -0.471395
vn -0.000001 0.831471 -0.555568
vn -0.000001 0.831471 -0.555568
vn 1.000000 0.000000 -0.000000
vn 1.000000 0.000000 -0.000000
vn 1.000000 0.000000 0.000000
vn 1.000000 0.000000 0.000000
vn 1.000000 0.000000 0.000000
vn 1.000000 -0.000000 0.000000
vn 1.000000 -0.000000 0.000000
vn 1.000000 0.000000 0.000000
vn -0.000001 0.707107 -0.707107
vn -0.000001 0.707107 -0.707107
vn -0.000001 0.773012 -0.634391
vn -0.000001 0.773012 -0.634391
vn -1.000000 0.000000 -0.000000
vn -1.000000 0.000000 0.000000
vn -1.000000 0.000000 0.000000
vn -1.000000 0.000000 -0.000000
vn -1.000000 0.000000 0.000000
vn -1.000000 0.000000 0.000000
vn -1.000000 -0.000000 0.000000
vn -1.000000 -0.000000 0.000000
vn -0.000002 0.634391 -0.773012
vn -0.000002 0.634391 -0.773012
vn -0.000000 0.555573 -0.831468
vn -0.000000 0.555573 -0.831468
vn 1.000000 0.000000 -0.000000
vn 1.000000 0.000000 -0.000000
vn 1.000000 0.000000 0.000000
vn 1.000000 0.000000 0.000000
vn 1.000000 0.000000 0.000000
vn 1.000000 -0.000000 0.000000
vn 1.000000 -0.000000 0.000000
vn 1.000000 0.000000 0.000000
vn 0.000000 0.382687 -0.923878
vn 0.000000 0.382687 -0.923878
vn 0.000001 0.471405 -0.881917
vn 0.000001 0.471405 -0.881917
vn -1.000000 0.000000 -0.000000
vn -1.000000 0.000000 0.000000
vn -1.000000 0.000000 0.000000
vn -1.000000 0.000000 -0.000000
vn -1.000000 0.000000 0.000000
vn -1.000000 0.000000 0.000000
vn -1.000000 -0.000000 0.000000
vn -1.000000 -0.000000 0.000000
vn -0.000001 0.290284 -0.956941
vn -0.000001 0.290284 -0.956941
vn -0.000000 0.195093 -0.980785
vn -0.000000 0.195093 -0.980785
vn 1.000000 0.000000 -0.000000
vn 1.000000 0.000000 -0.000000
vn 1.000000 0.000000 0.000000
vn 1.000000 0.000000 0.000000
vn 1.000000 -0.000000 0.000000
vn 1.000000 -0.000000 0.000000
vn 1.000000 -0.000000 0.000000
vn 1.000000 -0.000000 0.000000
vn -0.000001 0.000004 -1.000000
vn -0.000001 0.000004 -1.000000
vn -0.000000 0.098023 -0.995184
vn -0.000000 0.098023 -0.995184
vn -1.000000 0.000000 0.000000
vn -1.000000 0.000000 0.000000
vn -1.000000 0.000000 0.000000
vn -1.000000 0.000000 0.000000
vn -0.000000 0.707108 0.707105
vn -0.000000 0.707108 0.707105
vn -0.000001 0.831470 0.555569
vn -0.000001 0.831470 0.555569
vn -0.000001 0.881922 0.471395
vn -0.000001 0.881922 0.471395
vn -0.000001 0.923881 0.382680
vn -0.000001 0.923881 0.382680
vn -0.000000 0.956942 0.290280
vn -0.000000 0.956942 0.290280
vn -0.000000 0.980786 0.195087
vn -0.000000 0.980786 0.195087
vn 0.000000 0.995185 0.098014
vn 0.000000 0.995185 0.098014
vn 0.000001 1.000000 -0.000000
vn 0.000001 1.000000 -0.000000
vn 0.000001 0.995185 -0.098015
vn 0.000001 0.995185 -0.098015
vn 0.000000 0.980785 -0.195091
vn 0.000000 0.980785 -0.195091
vn -0.000001 0.956939 -0.290289
vn -0.000001 0.956939 -0.290289
vn -0.000000 0.923879 -0.382686
vn -0.000000 0.923879 -0.382686
vn -0.000000 0.881921 -0.471397
vn -0.000000 0.881921 -0.471397
vn -0.000000 0.831470 -0.555570
vn -0.000000 0.831470 -0.555570
vn -0.000001 0.773011 -0.634393
vn -0.000001 0.773011 -0.634393
vn -0.000001 0.707106 -0.707108
vn -0.000001 0.707106 -0.707108
vn -0.000001 0.634390 -0.773013
vn -0.000001 0.634390 -0.773013
vn -0.000000 0.555570 -0.831470
vn -0.000000 0.555570 -0.831470
vn 0.000000 0.471400 -0.881920
vn 0.000000 0.471400 -0.881920
vn -0.000000 0.382684 -0.923879
vn -0.000000 0.382684 -0.923879
vn -0.000000 0.290282 -0.956941
vn -0.000000 0.290282 -0.956941
vn 0.000000 0.195089 -0.980785
vn 0.000000 0.195089 -0.980785
vn 0.000001 0.098018 -0.995185
vn 0.000001 0.098018 -0.995185
vn 0.000001 0.098018 -0.995185
vn 0.000001 0.098018 -0.995185
vn 0.000001 0.098006 0.995186
vn 0.000001 0.098006 0.995186
vn 0.000001 0.195082 0.980787
vn 0.000001 0.195082 0.980787
vn 0.000000 0.290278 0.956942
vn 0.000000 0.290278 0.956942
vn 0.000001 0.382677 0.923882
vn 0.000001 0.382677 0.923882
vn 0.000001 0.471390 0.881925
vn 0.000001 0.471390 0.881925
vn 0.000001 0.555569 0.831471
vn 0.000001 0.555569 0.831471
vn 0.000000 0.634396 0.773008
vn 0.000000 0.634396 0.773008
vn 0.000000 0.634396 0.773008
vn 0.000000 0.634396 0.773008
vn -1.000000 0.000000 0.000000
vn -1.000000 0.000000 0.000000
vn -1.000000 0.000000 0.000000
vn -1.000000 0.000000 0.000000
vn -0.000000 -0.707105 -0.707109
vn -0.000000 -0.707105 -0.707109
vn -0.000000 -0.831471 -0.555569
vn -0.000000 -0.831471 -0.555569
vn 1.000000 0.000000 0.000000
vn 1.000000 0.000000 0.000000
vn 1.000000 0.000000 0.000000
vn 1.000000 0.000000 0.000000
vn 1.000000 0.000000 0.000000
vn 1.000000 0.000000 0.000000
vn 1.000000 0.000000 0.000000
vn 1.000000 0.000000 0.000000
vn -0.000001 -0.923882 -0.382678
vn -0.000001 -0.923882 -0.382678
vn -0.000001 -0.881924 -0.471392
vn -0.000001 -0.881924 -0.471392
vn -1.000000 -0.000000 0.000000
vn -1.000000 0.000000 0.000000
vn -1.000000 0.000000 0.000000
vn -1.000000 -0.000000 0.000000
vn -1.000000 0.000000 0.000000
vn -1.000000 0.000000 0.000000
vn -1.000000 0.000000 0.000000
vn -1.000000 0.000000 0.000000
vn -0.000001 -0.956942 -0.290278
vn -0.000001 -0.956942 -0.290278
vn -0.000000 -0.980786 -0.195087
vn -0.000000 -0.980786 -0.195087
vn 1.000000 -0.000000 0.000000
vn 1.000000 -0.000000 0.000000
vn 1.000000 0.000000 0.000000
vn 1.000000 0.000000 0.000000
vn 1.000000 0.000000 0.000000
vn 1.000000 0.000000 0.000000
vn 1.000000 0.000000 0.000000
vn 1.000000 0.000000 0.000000
vn 0.000000 -1.000000 0.000000
vn 0.000000 -1.000000 0.000000
vn -0.000000 -0.995185 -0.098017
vn -0.000000 -0.995185 -0.098017
vn -1.000000 0.000000 0.000000
vn -1.000000 0.000000 0.000000
vn -1.000000 0.000000 0.000000
vn -1.000000 0.000000 0.000000
vn -1.000000 0.000000 0.000000
vn -1.000000 0.000000 0.000000
vn -1.000000 0.000000 0.000000
vn -1.000000 0.000000 0.000000
vn 0.000000 -0.995185 0.098017
vn 0.000000 -0.995185 0.098017
vn 0.000000 -0.980786 0.195089
vn 0.000000 -0.980786 0.195089
vn 1.000000 0.000000 0.000000
vn 1.000000 0.000000 0.000000
vn 1.000000 0.000000 0.000000
vn 1.000000 0.000000 0.000000
vn 1.000000 0.000000 0.000000
vn 1.000000 0.000000 0.000000
vn 1.000000 0.000000 0.000000
vn 1.000000 0.000000 0.000000
vn 0.000000 -0.923880 0.382683
vn 0.000000 -0.923880 0.382683
vn 0.000000 -0.956941 0.290283
vn 0.000000 -0.956941 0.290283
vn -1.000000 0.000000 0.000000
vn -1.000000 0.000000 0.000000
vn -1.000000 0.000000 0.000000
vn -1.000000 0.000000 0.000000
vn -1.000000 0.000000 0.000000
vn -1.000000 0.000000 0.000000
vn -1.000000 0.000000 0.000000
vn -1.000000 0.000000 0.000000
vn 0.000000 -0.881920 0.471399
vn 0.000000 -0.881920 0.471399
vn 0.000000 -0.831469 0.555572
vn 0.000000 -0.831469 0.555572
vn 1.000000 0.000000 0.000000
vn 1.000000 0.000000 0.000000
vn 1.000000 0.000000 0.000000
vn 1.000000 0.000000 0.000000
vn 1.000000 0.000000 0.000000
vn 1.000000 0.000000 0.000000
vn 1.000000 0.000000 0.000000
vn 1.000000 0.000000 0.000000
vn 0.000000 -0.707106 0.707108
vn 0.000000 -0.707106 0.707108
vn 0.000000 -0.773010 0.634394
vn 0.000000 -0.773010 0.634394
vn -1.000000 0.000000 0.000000
vn -1.000000 0.000000 0.000000
vn -1.000000 0.000000 0.000000
vn -1.000000 0.000000 0.000000
vn -1.000000 0.000000 0.000000
vn -1.000000 0.000000 0.000000
vn -1.000000 0.000000 0.000000
vn -1.000000 0.000000 0.000000
vn 0.000000 -0.634392 0.773012
vn 0.000000 -0.634392 0.773012
vn 0.000000 -0.555568 0.831471
vn 0.000000 -0.555568 0.831471
vn 1.000000 0.000000 0.000000
vn 1.000000 0.000000 0.000000
vn 1.000000 0.000000 0.000000
vn 1.000000 0.000000 0.000000
vn 1.000000 0.000000 0.000000
vn 1.000000 0.000000 0.000000
vn 1.000000 0.000000 0.000000
vn 1.000000 0.000000 0.000000
vn 0.000000 -0.382684 0.923879
vn 0.000000 -0.382684 0.923879
vn 0.000000 -0.471395 0.881922
vn 0.000000 -0.471395 0.881922
vn -1.000000 0.000000 0.000000
vn -1.000000 0.000000 0.000000
vn -1.000000 0.000000 0.000000
vn -1.000000 0.000000 0.000000
vn -1.000000 0.000000 0.000000
vn -1.000000 0.000000 0.000000
vn -1.000000 0.000000 0.000000
vn -1.000000 0.000000 0.000000
vn 0.000000 -0.290287 0.956940
vn 0.000000 -0.290287 0.956940
vn 0.000000 -0.195092 0.980785
vn 0.000000 -0.195092 0.980785
vn 1.000000 0.000000 0.000000
vn 1.000000 0.000000 0.000000
vn 1.000000 0.000000 0.000000
vn 1.000000 0.000000 0.000000
vn 1.000000 0.000000 0.000000
vn 1.000000 0.000000 0.000000
vn 1.000000 0.000000 0.000000
vn 1.000000 0.000000 0.000000
vn 0.000000 -0.098017 0.995185
vn 0.000000 -0.098017 0.995185
vn 0.000000 -0.098017 0.995185
vn 0.000000 -0.098017 0.995185
vn -1.000000 0.000000 0.000000
vn -1.000000 0.000000 0.000000
vn -1.000000 0.000000 0.000000
vn -1.000000 0.000000 0.000000
vn -1.000000 0.000000 0.000000
vn -1.000000 0.000000 0.000000
vn -1.000000 0.000000 0.000000
vn -1.000000 0.000000 0.000000
vn -0.000002 -0.098016 -0.995185
vn -0.000002 -0.098016 -0.995185
vn -0.000001 -0.195086 -0.980786
vn -0.000001 -0.195086 -0.980786
vn 1.000000 -0.000000 -0.000000
vn 1.000000 -0.000000 -0.000000
vn 1.000000 0.000000 0.000000
vn 1.000000 0.000000 0.000000
vn 1.000000 0.000000 0.000000
vn 1.000000 0.000000 0.000000
vn 1.000000 0.000000 0.000000
vn 1.000000 0.000000 0.000000
vn -0.000001 -0.382681 -0.923881
vn -0.000001 -0.382681 -0.923881
vn 0.000000 -0.290278 -0.956942
vn 0.000000 -0.290278 -0.956942
vn -1.000000 -0.000000 0.000000
vn -1.000000 0.000000 0.000000
vn -1.000000 0.000000 0.000000
vn -1.000000 -0.000000 0.000000
vn -1.000000 0.000000 0.000000
vn -1.000000 0.000000 0.000000
vn -1.000000 0.000000 0.000000
vn -1.000000 0.000000 0.000000
vn -0.000002 -0.471399 -0.881920
vn -0.000002 -0.471399 -0.881920
vn -0.000001 -0.555569 -0.831470
vn -0.000001 -0.555569 -0.831470
vn 1.000000 -0.000000 0.000000
vn 1.000000 -0.000000 0.000000
vn 1.000000 0.000000 0.000000
vn 1.000000 0.000000 0.000000
vn 1.000000 0.000000 0.000000
vn 1.000000 0.000000 0.000000
vn 1.000000 0.000000 0.000000
vn 1.000000 0.000000 0.000000
vn -0.000000 -0.634390 -0.773013
vn -0.000000 -0.634390 -0.773013
vn -0.000000 -0.634390 -0.773013
vn -0.000000 -0.634390 -0.773013
vn -1.000000 -0.000000 0.000000
vn -1.000000 -0.000000 0.000000
vn -1.000000 -0.000000 0.000000
vn -1.000000 -0.000000 0.000000
mtllib muffe.mtl
usemtl Muffe.001
f 26//1 25//2 27//3 28//4
f 28//4 27//3 29//7 30//8
f 30//8 29//7 31//11 32//12
f 32//12 31//11 33//15 34//16
f 34//16 33//15 35//19 36//20
f 36//20 35//19 37//23 38//24
f 38//24 37//23 39//27 40//28
f 40//28 39//27 41//31 42//32
f 42//32 41//31 43//35 44//36
f 44//36 43//35 45//39 46//40
f 46//40 45//39 47//43 48//44
f 48//44 47//43 49//47 50//48
f 50//48 49//47 51//51 52//52
f 52//52 51//51 53//55 54//56
f 54//56 53//55 55//59 56//60
f 56//60 55//59 57//63 58//64
f 28//65 91//66 90//67 26//68
f 89//69 90//70 91//71 92//72
f 25//73 89//74 92//75 27//76
f 29//77 27//76 92//75 93//80
f 94//81 93//82 92//72 91//71
f 28//65 30//86 94//87 91//66
f 32//89 95//90 94//87 30//86
f 93//82 94//81 95//95 96//96
f 29//77 93//80 96//99 31//100
f 33//101 31//100 96//99 97//104
f 98//105 97//106 96//96 95//95
f 32//89 34//110 98//111 95//90
f 36//113 99//114 98//111 34//110
f 97//106 98//105 99//119 100//120
f 33//101 97//104 100//123 35//124
f 37//125 35//124 100//123 101//128
f 102//129 101//130 100//120 99//119
f 36//113 38//134 102//135 99//114
f 40//137 103//138 102//135 38//134
f 101//130 102//129 103//143 104//144
f 37//125 101//128 104//147 39//148
f 41//149 39//148 104//147 105//152
f 106//153 105//154 104//144 103//143
f 40//137 42//158 106//159 103//138
f 44//161 107//162 106//159 42//158
f 105//154 106//153 107//167 108//168
f 41//149 105//152 108//171 43//172
f 45//173 43//172 108//171 109//176
f 110//177 109//178 108//168 107//167
f 44//161 46//182 110//183 107//162
f 48//185 111//186 110//183 46//182
f 109//178 110//177 111//191 112//192
f 45//173 109//176 112//195 47//196
f 49//197 47//196 112//195 113//200
f 114//201 113//202 112//192 111//191
f 48//185 50//206 114//207 111//186
f 52//209 115//210 114//207 50//206
f 113//202 114//201 115//215 116//216
f 49//197 113//200 116//219 51//220
f 53//221 51//220 116//219 117//224
f 118//225 117//226 116//216 115//215
f 52//209 54//230 118//231 115//210
f 56//233 119//234 118//231 54//230
f 117//226 118//225 119//239 120//240
f 53//221 117//224 120//243 55//244
f 57//245 55//244 120//243 121//248
f 122//249 121//250 120//240 119//239
f 56//233 58//254 122//255 119//234
usemtl Muffe
f 1//257 2//258 3//259 4//260
f 4//260 3//259 5//263 6//264
f 6//264 5//263 7//267 8//268
f 8//268 7//267 9//271 10//272
f 10//272 9//271 11//275 12//276
f 12//276 11//275 13//279 14//280
f 14//280 13//279 15//283 16//284
f 16//284 15//283 17//287 18//288
f 18//288 17//287 19//291 20//292
f 20//292 19//291 21//295 22//296
f 22//296 21//295 23//299 24//300
f 24//300 23//299 25//2 26//1
f 58//64 57//63 59//307 60//308
f 60//308 59//307 61//311 62//312
f 62//312 61//311 63//315 64//316
f 2//258 1//257 64//316 63//315
f 66//321 1//322 4//323 65//324
f 67//325 66//326 65//327 68//328
f 2//329 67//330 68//331 3//332
f 5//333 3//332 68//331 69//336
f 70//337 69//338 68//328 65//327
f 4//323 6//342 70//343 65//324
f 8//345 71//346 70//343 6//342
f 69//338 70//337 71//351 72//352
f 5//333 69//336 72//355 7//356
f 9//357 7//356 72//355 73//360
f 74//361 73//362 72//352 71//351
f 8//345 10//366 74//367 71//346
f 12//369 75//370 74//367 10//366
f 73//362 74//361 75//375 76//376
f 9//357 73//360 76//379 11//380
f 13//381 11//380 76//379 77//384
f 78//385 77//386 76//376 75//375
f 12//369 14//390 78//391 75//370
f 16//393 79//394 78//391 14//390
f 77//386 78//385 79//399 80//400
f 13//381 77//384 80//403 15//404
f 17//405 15//404 80//403 81//408
f 82//409 81//410 80//400 79//399
f 16//393 18//414 82//415 79//394
f 20//417 83//418 82//415 18//414
f 81//410 82//409 83//423 84//424
f 17//405 81//408 84//427 19//428
f 21//429 19//428 84//427 85//432
f 86//433 85//434 84//424 83//423
f 20//417 22//438 86//439 83//418
f 24//441 87//442 86//439 22//438
f 85//434 86//433 87//447 88//448
f 21//429 85//432 88//451 23//452
f 25//73 23//452 88//451 89//74
f 90//70 89//69 88//448 87//447
f 24//441 26//68 90//67 87//442
f 60//465 123//466 122//255 58//254
f 121//250 122//249 123//471 124//472
f 57//245 121//248 124//475 59//476
f 61//477 59//476 124//475 125//480
f 126//481 125//482 124//472 123//471
f 60//465 62//486 126//487 123//466
f 64//489 127//490 126//487 62//486
f 125//482 126//481 127//495 128//496
f 61//477 125//480 128//499 63//500
f 2//329 63//500 128//499 67//330
f 66//326 67//325 128//496 127//495
f 64//489 1//322 66//321 127//490
